<?xml version="1.0" encoding="UTF-8"?>
<svg version="1.1" xmlns="http://www.w3.org/2000/svg" width="64" height="64">
<path d="M0 0 C3.86543478 2.69681496 5.97931628 5.40777929 7.29296875 9.984375 C8.16979042 15.01958856 7.63209175 18.71739602 5.04296875 23.14453125 C2.17513774 26.80576796 -0.99208414 28.48691651 -5.5546875 29.25 C-10.95017009 29.54066573 -14.12642015 28.47697568 -18.3125 24.875 C-19.09625 24.215 -19.88 23.555 -20.6875 22.875 C-23.31499186 18.0242458 -23.26536737 13.2508786 -22.3125 7.875 C-17.56676694 -1.00411346 -9.19476427 -3.12275013 0 0 Z " fill="#44B677" transform="translate(38.3125,4.125)"/>
<path d="M0 0 C3.62011046 2.33296007 5.89022378 4.96794755 7.8125 8.8125 C8.3654679 14.22520498 8.32740212 18.41887234 4.8125 22.8125 C1.99235861 25.98515906 0.08704299 27.54821977 -4.23828125 28.05078125 C-9.76763476 28.23222808 -12.83260384 27.54526814 -17.1875 23.8125 C-20.06315761 20.54019996 -21.07918611 17.9389645 -21.5 13.5625 C-21.12454397 9.05702766 -20.09189372 6.26360313 -17.1875 2.8125 C-11.88567833 -1.64942912 -6.56177852 -2.44458415 0 0 Z M-2.1875 8.8125 C-2.93 9.658125 -3.6725 10.50375 -4.4375 11.375 C-7.1875 13.8125 -7.1875 13.8125 -10.5 13.625 C-11.386875 13.356875 -12.27375 13.08875 -13.1875 12.8125 C-12.20533402 15.5804223 -11.60532513 16.60358743 -8.9375 17.9375 C-5.14869074 17.7652814 -3.87654314 16.10188482 -1.32421875 13.453125 C0.09725762 11.73416643 0.09725762 11.73416643 -0.1875 8.8125 C-0.8475 8.8125 -1.5075 8.8125 -2.1875 8.8125 Z " fill="#44B577" transform="translate(53.1875,33.1875)"/>
<path d="M0 0 C-0.495 0.763125 -0.99 1.52625 -1.5 2.3125 C-3.49736322 7.22268458 -3.75091453 11.75832209 -3 17 C-2.03162794 19.0155038 -1.03464504 21.01770092 0 23 C-4.23582327 23.04938628 -8.47149465 23.08571263 -12.70751953 23.10986328 C-14.14895547 23.11992963 -15.59037095 23.1335838 -17.03173828 23.15087891 C-19.10193934 23.17510012 -21.17187076 23.18647641 -23.2421875 23.1953125 C-25.11173096 23.21102295 -25.11173096 23.21102295 -27.01904297 23.22705078 C-30 23 -30 23 -32 21 C-32.78627884 16.86447571 -32.8256072 12.78937724 -31.04296875 8.92578125 C-26.44393506 2.81582583 -19.51687026 0.81252482 -12.2421875 -0.49609375 C-7.98484917 -1.01078689 -4.16594658 -1.24978397 0 0 Z " fill="#44B577" transform="translate(35,35)"/>
</svg>
