<?xml version="1.0" encoding="UTF-8"?>
<svg version="1.1" xmlns="http://www.w3.org/2000/svg" width="64" height="64">
<path d="M0 0 C2.75565157 1.16046133 4.32079948 2.77722732 6.41113281 4.91235352 C7.60996094 6.12568359 7.60996094 6.12568359 8.83300781 7.36352539 C9.65800781 8.21366211 10.48300781 9.06379883 11.33300781 9.93969727 C12.59371094 11.22070312 12.59371094 11.22070312 13.87988281 12.52758789 C15.95448379 14.63755138 18.02176613 16.75419435 20.08300781 18.87719727 C23.45845415 17.42789289 25.52289193 15.60570777 28.01660156 12.92797852 C28.74814453 12.16291992 29.4796875 11.39786133 30.23339844 10.60961914 C31.76216337 8.99207879 33.28299097 7.36700084 34.79589844 5.73461914 C35.52873047 4.97342773 36.2615625 4.21223633 37.01660156 3.42797852 C37.67716553 2.72326416 38.33772949 2.0185498 39.01831055 1.29248047 C41.08300781 -0.12280273 41.08300781 -0.12280273 43.7746582 0.09277344 C46.08300781 0.87719727 46.08300781 0.87719727 47.08300781 1.87719727 C47.60972246 5.80316565 47.41580032 7.41625264 45.06689453 10.66967773 C43.67881592 12.06790771 43.67881592 12.06790771 42.26269531 13.49438477 C41.76641632 13.99640411 41.27013733 14.49842346 40.75881958 15.01565552 C39.70855704 16.06998972 38.65072387 17.11682978 37.5859375 18.15649414 C35.96272449 19.74757396 34.37401692 21.36813171 32.78613281 22.99438477 C31.75940518 24.01714735 30.73081774 25.03804702 29.70019531 26.05688477 C28.76804199 26.98227051 27.83588867 27.90765625 26.87548828 28.86108398 C24.08300781 30.87719727 24.08300781 30.87719727 21.08300781 31.47973633 C17.03334958 30.66637724 15.38600766 28.9558711 12.46582031 26.05688477 C11.96380096 25.56060577 11.46178162 25.06432678 10.94454956 24.55300903 C9.89021536 23.5027465 8.8433753 22.44491332 7.80371094 21.38012695 C6.21263112 19.75691394 4.59207337 18.16820638 2.96582031 16.58032227 C1.94305773 15.55359463 0.92215806 14.5250072 -0.09667969 13.49438477 C-1.02206543 12.56223145 -1.94745117 11.63007813 -2.90087891 10.66967773 C-4.91699219 7.87719727 -4.91699219 7.87719727 -5.40576172 4.65112305 C-5.24446777 3.73572754 -5.08317383 2.82033203 -4.91699219 1.87719727 C-1.91699219 -0.12280273 -1.91699219 -0.12280273 0 0 Z " fill="#000000" transform="translate(10.9169921875,7.122802734375)"/>
<path d="M0 0 C3.98453762 0.38183894 5.00865524 1.39218373 7.74365234 4.24609375 C8.53642578 5.05820312 9.32919922 5.8703125 10.14599609 6.70703125 C10.95423828 7.56554688 11.76248047 8.4240625 12.59521484 9.30859375 C13.42666016 10.16710938 14.25810547 11.025625 15.11474609 11.91015625 C17.16404323 14.0301188 19.19805509 16.16278359 21.22021484 18.30859375 C24.47555038 16.89244861 26.51719578 15.19675111 28.93505859 12.61328125 C29.96469727 11.54013672 29.96469727 11.54013672 31.01513672 10.4453125 C32.44558628 8.93532108 33.87007024 7.41965625 35.28857422 5.8984375 C36.32014648 4.82916016 36.32014648 4.82916016 37.37255859 3.73828125 C38.30056274 2.75190674 38.30056274 2.75190674 39.24731445 1.74560547 C41.76098262 -0.08528809 43.17518953 -0.12476196 46.22021484 0.30859375 C48.22021484 2.30859375 48.22021484 2.30859375 48.66235352 4.57275391 C48.03765518 8.43822576 45.83238348 10.43248372 43.14599609 13.08203125 C42.62514938 13.61003326 42.10430267 14.13803528 41.56767273 14.68203735 C40.46501323 15.79246837 39.35593214 16.89655454 38.2409668 17.99462891 C36.53647945 19.67987165 34.86337435 21.39240831 33.19091797 23.109375 C32.11521555 24.18536773 31.03779665 25.25964776 29.95849609 26.33203125 C29.45933182 26.84647797 28.96016754 27.36092468 28.44587708 27.89096069 C26.22940558 30.03502127 24.86093674 31.2741497 21.72241211 31.44287109 C18.37060747 29.92345609 16.00998034 27.70922342 13.44677734 25.13671875 C12.91877533 24.61728699 12.39077332 24.09785522 11.84677124 23.56268311 C10.73749707 22.46486383 9.63338484 21.36180714 8.53417969 20.25390625 C6.8470031 18.56038872 5.13487219 16.89529429 3.41943359 15.23046875 C2.34359594 14.1591754 1.26932101 13.08630992 0.19677734 12.01171875 C-0.31766937 11.51569153 -0.83211609 11.01966431 -1.3621521 10.50860596 C-2.76953125 9.06347656 -2.76953125 9.06347656 -4.77978516 6.30859375 C-4.59016388 2.11935455 -4.27178191 0.47422557 0 0 Z " fill="#000000" transform="translate(9.77978515625,25.69140625)"/>
</svg>
