<?xml version="1.0" encoding="UTF-8"?>
<svg version="1.1" xmlns="http://www.w3.org/2000/svg" width="64" height="64">
<path d="M0 0 C7.64288664 5.48235331 11.47591883 13.28283402 13.25 22.375 C14.47934805 31.37314477 11.24347303 40.08052774 6.0390625 47.3359375 C0.09659933 54.10878854 -8.00648391 57.45368471 -16.80859375 58.65625 C-26.00097343 59.10014761 -34.91326462 55.37351495 -41.75 49.375 C-47.74851495 42.53826462 -51.47514761 33.62597343 -51.03125 24.43359375 C-49.82868471 15.63148391 -46.48378854 7.52840067 -39.7109375 1.5859375 C-27.16220216 -7.41545216 -13.18570026 -7.97790268 0 0 Z " fill="#9A9A9A" transform="translate(50.75,5.625)"/>
<path d="M0 0 C8.58 0 17.16 0 26 0 C26 10.13943809 26 10.13943809 25.59765625 13.5625 C25.51193359 14.29597656 25.42621094 15.02945313 25.33789062 15.78515625 C25.24701172 16.51605469 25.15613281 17.24695313 25.0625 18 C24.97548828 18.76183594 24.88847656 19.52367188 24.79882812 20.30859375 C24.12963051 25.87036949 24.12963051 25.87036949 23 27 C21.52347336 27.09880797 20.04232764 27.13079245 18.5625 27.1328125 C17.22058594 27.13474609 17.22058594 27.13474609 15.8515625 27.13671875 C14.91054688 27.13285156 13.96953125 27.12898438 13 27.125 C11.58847656 27.13080078 11.58847656 27.13080078 10.1484375 27.13671875 C9.25382812 27.13542969 8.35921875 27.13414063 7.4375 27.1328125 C6.61121094 27.13168457 5.78492188 27.13055664 4.93359375 27.12939453 C3 27 3 27 2 26 C1.5919664 23.33140066 1.24365877 20.68059014 0.9375 18 C0.84662109 17.26910156 0.75574219 16.53820312 0.66210938 15.78515625 C0.57638672 15.05167969 0.49066406 14.31820312 0.40234375 13.5625 C0.32491943 12.90378906 0.24749512 12.24507812 0.16772461 11.56640625 C-0.08373529 7.71874034 0 3.85587409 0 0 Z " fill="#FBFBFB" transform="translate(19,25)"/>
<path d="M0 0 C1.31291016 -0.03867188 1.31291016 -0.03867188 2.65234375 -0.078125 C5.0625 0.25 5.0625 0.25 6.8671875 1.59765625 C8.50243099 3.85813989 8.28305871 5.52977591 8.0625 8.25 C10.3725 8.25 12.6825 8.25 15.0625 8.25 C15.0625 9.57 15.0625 10.89 15.0625 12.25 C5.1625 12.25 -4.7375 12.25 -14.9375 12.25 C-14.9375 10.93 -14.9375 9.61 -14.9375 8.25 C-12.6275 8.25 -10.3175 8.25 -7.9375 8.25 C-7.81375 7.115625 -7.69 5.98125 -7.5625 4.8125 C-7.35625 3.636875 -7.15 2.46125 -6.9375 1.25 C-4.48367866 0.02308933 -2.73765897 0.04824069 0 0 Z " fill="#FEFEFE" transform="translate(31.9375,11.75)"/>
<path d="M0 0 C1.91015625 0.23046875 1.91015625 0.23046875 3.91015625 2.23046875 C3.91015625 3.55046875 3.91015625 4.87046875 3.91015625 6.23046875 C-0.04984375 6.23046875 -4.00984375 6.23046875 -8.08984375 6.23046875 C-6.72426539 -0.59742304 -6.56386772 0.1310391 0 0 Z " fill="#A7A7A7" transform="translate(34.08984375,13.76953125)"/>
<path d="M0 0 C0.99 0 1.98 0 3 0 C3.33 5.61 3.66 11.22 4 17 C3.01 17 2.02 17 1 17 C0.1679418 11.27959989 -0.12036664 5.77759884 0 0 Z " fill="#A8A8A8" transform="translate(26,29)"/>
<path d="M0 0 C0.99 0 1.98 0 3 0 C2.67 5.61 2.34 11.22 2 17 C1.01 17 0.02 17 -1 17 C-0.67 11.39 -0.34 5.78 0 0 Z " fill="#A4A4A4" transform="translate(35,29)"/>
<path d="M0 0 C1.31291016 -0.03867188 1.31291016 -0.03867188 2.65234375 -0.078125 C5.4818869 0.30709643 6.31382925 1.05694757 8.0625 3.25 C7.7325 3.91 7.4025 4.57 7.0625 5.25 C6.0725 4.59 5.0825 3.93 4.0625 3.25 C2.00540404 3.00944532 2.00540404 3.00944532 -0.125 3.125 C-1.383125 3.16625 -2.64125 3.2075 -3.9375 3.25 C-4.5975 4.9 -5.2575 6.55 -5.9375 8.25 C-6.5975 8.25 -7.2575 8.25 -7.9375 8.25 C-7.68188677 5.9068787 -7.34479228 3.57156597 -6.9375 1.25 C-4.48367866 0.02308933 -2.73765897 0.04824069 0 0 Z " fill="#F7F7F7" transform="translate(31.9375,11.75)"/>
</svg>
