<?xml version="1.0" encoding="UTF-8"?>
<svg version="1.1" xmlns="http://www.w3.org/2000/svg" width="64" height="64">
<path d="M0 0 C6.33346516 3.87873884 10.01575255 9.15586166 12.03125 16.24609375 C13.3764263 22.53479295 12.45521061 27.81455063 9.5 33.4375 C8.61548834 34.5066054 7.69892745 35.5501345 6.75 36.5625 C4.23801707 39.18203471 4.23801707 39.18203471 4.4375 42.125 C5.72719895 46.14582614 7.14687775 50.10481144 8.66015625 54.046875 C9.5 56.4375 9.5 56.4375 9.5 58.4375 C8.89671875 58.39109375 8.2934375 58.3446875 7.671875 58.296875 C2.47065798 57.92187136 2.47065798 57.92187136 -1.875 60.4375 C-2.41125 61.0975 -2.9475 61.7575 -3.5 62.4375 C-4.49 62.4375 -5.48 62.4375 -6.5 62.4375 C-7.17260351 60.66891309 -7.83788395 58.89753984 -8.5 57.125 C-8.87125 56.13886719 -9.2425 55.15273438 -9.625 54.13671875 C-10.5 51.4375 -10.5 51.4375 -10.5 48.4375 C-11.16 48.4375 -11.82 48.4375 -12.5 48.4375 C-12.603125 49.076875 -12.70625 49.71625 -12.8125 50.375 C-13.73903073 54.50227326 -15.11660629 58.44392949 -16.5 62.4375 C-18.96261792 62.0129107 -20.21672835 61.73899825 -21.95703125 59.88671875 C-23.42717553 58.22259737 -23.42717553 58.22259737 -25.76171875 58.14453125 C-26.96248047 58.19673828 -26.96248047 58.19673828 -28.1875 58.25 C-28.99574219 58.27707031 -29.80398437 58.30414063 -30.63671875 58.33203125 C-31.55904297 58.38423828 -31.55904297 58.38423828 -32.5 58.4375 C-32.04548816 56.70732492 -31.58621143 54.97840123 -31.125 53.25 C-30.86976562 52.28707031 -30.61453125 51.32414062 -30.3515625 50.33203125 C-29.5 47.4375 -29.5 47.4375 -28.39453125 44.6953125 C-27.36794562 42.5416804 -27.36794562 42.5416804 -27.5625 40.5 C-28.71821078 37.95743629 -30.47060677 36.16206215 -32.2890625 34.0703125 C-35.66303736 29.52088833 -35.96993305 23.88872333 -35.5 18.4375 C-33.93275529 11.03589054 -30.76466951 5.79754264 -24.82421875 1.1171875 C-17.78403105 -3.19436214 -7.47748599 -3.32172935 0 0 Z " fill="#FD9635" transform="translate(43.5,1.5625)"/>
<path d="M0 0 C5.10698434 2.10902766 9.008352 5.33302912 12 10 C13.6276708 15.25948048 14.10867348 21.08662484 12.12890625 26.2890625 C9.48485291 30.9183231 6.2388875 34.46643475 1 36 C-5.84817329 36.99043829 -11.70766639 36.76594882 -17.375 32.5390625 C-21.62406868 28.51470419 -23.21503513 24.86417388 -23.4375 19 C-23.19555536 13.85672524 -22.2717021 9.39260501 -18.60546875 5.53125 C-12.71585901 0.40207088 -7.70334074 -1.13352461 0 0 Z " fill="#CE7430" transform="translate(37,5)"/>
<path d="M0 0 C5.75 1.875 5.75 1.875 8 3 C15.99014815 3.59610861 22.58043146 3.01812958 30 0 C31.00399524 2.62353518 32.00334445 5.24867795 33 7.875 C33.42925781 8.99455078 33.42925781 8.99455078 33.8671875 10.13671875 C36 15.7734375 36 15.7734375 36 18 C35.39671875 17.95359375 34.7934375 17.9071875 34.171875 17.859375 C28.97065798 17.48437136 28.97065798 17.48437136 24.625 20 C24.08875 20.66 23.5525 21.32 23 22 C22.01 22 21.02 22 20 22 C19.32739649 20.23141309 18.66211605 18.46003984 18 16.6875 C17.62875 15.70136719 17.2575 14.71523438 16.875 13.69921875 C16 11 16 11 16 8 C15.34 8 14.68 8 14 8 C13.896875 8.639375 13.79375 9.27875 13.6875 9.9375 C12.76096927 14.06477326 11.38339371 18.00642949 10 22 C7.53738208 21.5754107 6.28327165 21.30149825 4.54296875 19.44921875 C3.07282447 17.78509737 3.07282447 17.78509737 0.73828125 17.70703125 C-0.46248047 17.75923828 -0.46248047 17.75923828 -1.6875 17.8125 C-2.49574219 17.83957031 -3.30398437 17.86664063 -4.13671875 17.89453125 C-5.05904297 17.94673828 -5.05904297 17.94673828 -6 18 C-4.41039668 11.76559832 -2.72399099 5.83712355 0 0 Z " fill="#0082FD" transform="translate(17,42)"/>
<path d="M0 0 C3.0724236 1.00187726 4.05849984 1.32595195 5.875 3.9375 C6.2008438 6.68222033 6.33948502 9.13479377 6.3125 11.875 C6.33248047 12.59107422 6.35246094 13.30714844 6.37304688 14.04492188 C6.36979399 17.55478846 6.15367116 19.56298017 4.03515625 22.41015625 C1.08627562 24.4951695 -0.58881993 24.52686334 -4.125 23.9375 C-6.5625 22.25 -6.5625 22.25 -8.125 19.9375 C-7.875 17.1875 -7.875 17.1875 -7.125 14.9375 C-6.135 14.9375 -5.145 14.9375 -4.125 14.9375 C-3.795 15.9275 -3.465 16.9175 -3.125 17.9375 C-1.10991642 18.67073796 -1.10991642 18.67073796 0.875 18.9375 C0.875 17.6175 0.875 16.2975 0.875 14.9375 C-0.445 14.6075 -1.765 14.2775 -3.125 13.9375 C-3.125 12.6175 -3.125 11.2975 -3.125 9.9375 C-2.135 9.6075 -1.145 9.2775 -0.125 8.9375 C0.60823796 6.92241642 0.60823796 6.92241642 0.875 4.9375 C-0.445 4.9375 -1.765 4.9375 -3.125 4.9375 C-3.455 6.2575 -3.785 7.5775 -4.125 8.9375 C-5.445 8.9375 -6.765 8.9375 -8.125 8.9375 C-8.4375 6.6875 -8.4375 6.6875 -8.125 3.9375 C-5.41940372 0.91359827 -4.10202376 -0.08204048 0 0 Z " fill="#FAA558" transform="translate(33.125,11.0625)"/>
<path d="M0 0 C1.26660973 1.8999146 2.48265955 3.83537229 3.625 5.8125 C7.11161167 10.49189987 11.4209321 14.1403107 17 16 C24.41397958 16.67000408 30.91563452 16.64476115 37 12 C40.72341554 8.49267554 43.49707421 4.95965509 45 0 C45.75 1.5625 45.75 1.5625 46 4 C42.92622451 10.76230609 38.29533374 15.75727775 31.17578125 18.48828125 C24.41374466 20.07863456 17.31860424 20.14494431 11.0625 16.9375 C6.5314875 13.97523584 1.98388324 10.36488067 0.4140625 4.99609375 C0.125 3.0625 0.125 3.0625 0 0 Z " fill="#F98810" transform="translate(9,27)"/>
<path d="M0 0 C5.75 1.875 5.75 1.875 8 3 C14.94548862 3.41770071 21.4406837 3.44067583 28 1 C27.00231288 3.72096488 26.41470581 4.79301151 23.77734375 6.109375 C16.07926669 8.57795667 8.63467683 7.49430306 1.546875 3.875 C1.03640625 3.58625 0.5259375 3.2975 0 3 C0 2.01 0 1.02 0 0 Z " fill="#1273EA" transform="translate(17,42)"/>
<path d="M0 0 C0.495 1.485 0.495 1.485 1 3 C-1.12574389 7.16291512 -3.5942222 10.14882938 -7.81640625 12.30078125 C-13.25306679 14.04167971 -19.13883243 14.09940927 -24.48046875 12.046875 C-27.84490108 10.11033471 -29.65599491 8.64500954 -31.5 5.1875 C-31.665 4.465625 -31.83 3.74375 -32 3 C-31.46890625 3.42152344 -30.9378125 3.84304687 -30.390625 4.27734375 C-29.68421875 4.82519531 -28.9778125 5.37304688 -28.25 5.9375 C-27.55390625 6.48277344 -26.8578125 7.02804688 -26.140625 7.58984375 C-21.59682905 10.58311079 -16.28756443 10.63415046 -11 10 C-5.58522044 8.14924527 -2.73597968 4.81532424 0 0 Z " fill="#C16A2E" transform="translate(48,28)"/>
<path d="M0 0 C0.70125 0.680625 1.4025 1.36125 2.125 2.0625 C4.85429157 4.30268181 4.85429157 4.30268181 8.125 3.9375 C10.96592312 3.01111203 12.18628409 2.31752588 14 0 C13.6875 2.375 13.6875 2.375 13 5 C9.50875983 7.32749345 8.10777749 7.50299316 4 7 C1.625 5.1875 1.625 5.1875 0 3 C0 2.01 0 1.02 0 0 Z " fill="#E99754" transform="translate(25,28)"/>
<path d="M0 0 C0.75 1.5625 0.75 1.5625 1 4 C-0.8951859 7.858057 -2.69020032 11.18667027 -6 14 C-6.66 13.67 -7.32 13.34 -8 13 C-7.25943359 11.96939453 -7.25943359 11.96939453 -6.50390625 10.91796875 C-5.86324219 10.01691406 -5.22257812 9.11585937 -4.5625 8.1875 C-3.92441406 7.29417969 -3.28632812 6.40085937 -2.62890625 5.48046875 C-0.86709732 3.02865666 -0.86709732 3.02865666 0 0 Z " fill="#FF8C0C" transform="translate(54,27)"/>
</svg>
