<?xml version="1.0" encoding="UTF-8"?>
<svg version="1.1" xmlns="http://www.w3.org/2000/svg" width="64" height="64">
<path d="M0 0 C4.35699098 2.46622131 7.04335342 5.33670683 9.3125 9.875 C9.58892664 13.24916015 9.75955009 16.62301561 9.93359375 20.00390625 C10.05863281 20.95136719 10.18367188 21.89882813 10.3125 22.875 C10.9725 23.205 11.6325 23.535 12.3125 23.875 C12.35375 22.8025 12.395 21.73 12.4375 20.625 C13.3125 16.875 13.3125 16.875 15.9375 14.4375 C19.85570461 12.62351639 22.0433401 12.26512001 26.3125 12.875 C31.85096154 15.95192308 31.85096154 15.95192308 33.3125 18.875 C33.94869673 24.01001648 34.19293099 27.6766356 31.0625 31.9375 C28.65372652 33.63459041 27.20145266 34.55400526 24.3125 34.875 C24.3125 35.535 24.3125 36.195 24.3125 36.875 C22.32560269 38.22778115 20.32504782 39.56068305 18.3125 40.875 C16.61243766 44.27512468 17.02056541 48.17275025 16.88671875 51.9296875 C16.15925194 55.66104788 15.37204017 56.6263435 12.3125 58.875 C9.38458881 59.45786054 6.5083618 59.41188587 3.53125 59.37109375 C2.68075073 59.37254898 1.83025146 59.37400421 0.95397949 59.37550354 C-0.84142488 59.37384601 -2.63684366 59.36230097 -4.43212891 59.34155273 C-7.1780237 59.31259992 -9.92198699 59.32094576 -12.66796875 59.33398438 C-14.41407187 59.32774658 -16.1601689 59.31935531 -17.90625 59.30859375 C-19.13607605 59.31299721 -19.13607605 59.31299721 -20.39074707 59.31748962 C-23.60641676 59.26435218 -26.24804778 59.07028843 -29.20532227 57.75610352 C-31.39629792 54.97543025 -31.18910064 52.85091977 -31.18359375 49.34375 C-31.18423828 48.05855469 -31.18488281 46.77335937 -31.18554688 45.44921875 C-31.17515381 44.78067871 -31.16476074 44.11213867 -31.15405273 43.42333984 C-31.12509447 41.38166026 -31.13344325 39.34257784 -31.14648438 37.30078125 C-31.08217819 27.43720244 -31.08217819 27.43720244 -29.34790039 24.96679688 C-27.6875 23.875 -27.6875 23.875 -24.6875 23.875 C-24.72230469 23.2459375 -24.75710937 22.616875 -24.79296875 21.96875 C-25.00586536 15.23716192 -24.78945017 9.24094593 -20.03515625 4.08203125 C-13.85586368 -1.41793106 -7.91097282 -2.41351713 0 0 Z M-13.125 10.8125 C-15.30014183 15.07577799 -14.97128522 18.12159758 -14.6875 22.875 C-9.7375 22.875 -4.7875 22.875 0.3125 22.875 C0.76071352 16.59868779 0.76071352 16.59868779 -1.25 10.8125 C-3.64049693 8.59750985 -3.64049693 8.59750985 -7.1875 8.25 C-10.73450307 8.59750985 -10.73450307 8.59750985 -13.125 10.8125 Z " fill="#FEA621" transform="translate(30.6875,3.125)"/>
<path d="M0 0 C5.53846154 3.07692308 5.53846154 3.07692308 7 6 C7.63619673 11.13501648 7.88043099 14.8016356 4.75 19.0625 C2.34122652 20.75959041 0.88895266 21.67900526 -2 22 C-2 22.66 -2 23.32 -2 24 C-3.98689731 25.35278115 -5.98745218 26.68568305 -8 28 C-8.33 28.66 -8.66 29.32 -9 30 C-9.99 30 -10.98 30 -12 30 C-12.268125 31.0725 -12.53625 32.145 -12.8125 33.25 C-13.86574888 36.57604911 -14.51162986 38.6073364 -17 41 C-18.32 41 -19.64 41 -21 41 C-21.9281513 38.27742285 -22.29390084 36.82819334 -22 34 C-20.54296875 31.42578125 -20.54296875 31.42578125 -18.625 28.5625 C-14.45112781 22.05520321 -14.2996228 17.06753966 -14.4609375 9.56640625 C-13.88410406 5.10327971 -12.44915693 3.77071915 -9 1 C-5.89046621 -0.5547669 -3.43733239 -0.28644437 0 0 Z " fill="#FF7A1A" transform="translate(57,16)"/>
<path d="M0 0 C4.35699098 2.46622131 7.04335342 5.33670683 9.3125 9.875 C9.38366382 12.24902501 9.39659085 14.62500677 9.375 17 C9.36597656 18.28132813 9.35695312 19.56265625 9.34765625 20.8828125 C9.33605469 21.87023437 9.32445312 22.85765625 9.3125 23.875 C6.3425 23.875 3.3725 23.875 0.3125 23.875 C0.27511719 23.19953125 0.23773437 22.5240625 0.19921875 21.828125 C0.13347656 20.93609375 0.06773438 20.0440625 0 19.125 C-0.05800781 18.24328125 -0.11601562 17.3615625 -0.17578125 16.453125 C-0.76507302 13.48417412 -1.57131413 12.02571571 -3.6875 9.875 C-7.1875 9.20833333 -7.1875 9.20833333 -10.6875 9.875 C-13.54081201 12.77486955 -14.11224591 15.13113777 -14.375 19.125 C-14.478125 20.6925 -14.58125 22.26 -14.6875 23.875 C-17.9875 23.875 -21.2875 23.875 -24.6875 23.875 C-24.95833353 17.37499538 -25.18550013 11.56686781 -21.6875 5.875 C-15.42629852 -0.91906969 -8.90454904 -2.71664208 0 0 Z " fill="#CACFD6" transform="translate(30.6875,3.125)"/>
<path d="M0 0 C3.125 0.375 3.125 0.375 5.5625 2 C7.125 4.375 7.125 4.375 6.9375 7.5625 C6.125 10.375 6.125 10.375 5.125 11.375 C4.91731771 12.84896739 4.75783983 14.3299126 4.625 15.8125 C4.23458904 20.15582192 4.23458904 20.15582192 3.125 22.375 C1.45888095 22.417721 -0.20882885 22.41563832 -1.875 22.375 C-3.87477858 20.37522142 -3.31032807 16.53170096 -3.49609375 13.8203125 C-3.7382494 11.12431222 -3.7382494 11.12431222 -5.875 8.375 C-5.48570434 3.60612822 -5.23145875 0.68236418 0 0 Z " fill="#605E51" transform="translate(22.875,32.625)"/>
<path d="M0 0 C2.64 1.32 5.28 2.64 8 4 C7 6 6 8 5 10 C4.01 10 3.02 10 2 10 C1.731875 11.0725 1.46375 12.145 1.1875 13.25 C0.13425112 16.57604911 -0.51162986 18.6073364 -3 21 C-4.32 21 -5.64 21 -7 21 C-8.30734413 15.68164193 -7.95771336 12.94683363 -5.24414062 8.40820312 C-4.85419922 7.79912109 -4.46425781 7.19003906 -4.0625 6.5625 C-3.67642578 5.92634766 -3.29035156 5.29019531 -2.89257812 4.63476562 C-1.94532521 3.07939972 -0.97494833 1.53815699 0 0 Z " fill="#FFCE85" transform="translate(43,36)"/>
<path d="M0 0 C1.8125 1.125 1.8125 1.125 3 3 C3.4375 6 3.4375 6 3 9 C1.3125 10.9375 1.3125 10.9375 -1 12 C-4.37036311 11.75925978 -5.58798021 11.41201979 -8 9 C-8.333728 5.86295684 -8.52849028 3.83445834 -6.8125 1.125 C-4.34492892 -0.40659584 -2.85480169 -0.42822025 0 0 Z " fill="#FFF7F1" transform="translate(56,21)"/>
</svg>
