<?xml version="1.0" encoding="UTF-8"?>
<svg version="1.1" xmlns="http://www.w3.org/2000/svg" width="64" height="64">
<path d="M0 0 C0.886875 -0.00257813 1.77375 -0.00515625 2.6875 -0.0078125 C4.0796875 0.00378906 4.0796875 0.00378906 5.5 0.015625 C6.428125 0.00789062 7.35625 0.00015625 8.3125 -0.0078125 C9.6428125 -0.00394531 9.6428125 -0.00394531 11 0 C11.8146875 0.00225586 12.629375 0.00451172 13.46875 0.00683594 C15.5 0.265625 15.5 0.265625 17.5 2.265625 C17.75878906 4.296875 17.75878906 4.296875 17.765625 6.765625 C17.76949219 8.0959375 17.76949219 8.0959375 17.7734375 9.453125 C17.76570313 10.38125 17.75796875 11.309375 17.75 12.265625 C17.75773437 13.19375 17.76546875 14.121875 17.7734375 15.078125 C17.77085938 15.965 17.76828125 16.851875 17.765625 17.765625 C17.76336914 18.5803125 17.76111328 19.395 17.75878906 20.234375 C17.5 22.265625 17.5 22.265625 15.5 24.265625 C13.46875 24.52441406 13.46875 24.52441406 11 24.53125 C10.113125 24.53382812 9.22625 24.53640625 8.3125 24.5390625 C7.384375 24.53132813 6.45625 24.52359375 5.5 24.515625 C4.1078125 24.52722656 4.1078125 24.52722656 2.6875 24.5390625 C1.3571875 24.53519531 1.3571875 24.53519531 0 24.53125 C-0.8146875 24.52899414 -1.629375 24.52673828 -2.46875 24.52441406 C-4.5 24.265625 -4.5 24.265625 -6.5 22.265625 C-6.75878906 20.234375 -6.75878906 20.234375 -6.765625 17.765625 C-6.76820313 16.87875 -6.77078125 15.991875 -6.7734375 15.078125 C-6.76183594 13.6859375 -6.76183594 13.6859375 -6.75 12.265625 C-6.75773438 11.3375 -6.76546875 10.409375 -6.7734375 9.453125 C-6.77085937 8.56625 -6.76828125 7.679375 -6.765625 6.765625 C-6.76336914 5.9509375 -6.76111328 5.13625 -6.75878906 4.296875 C-6.21708282 0.04499205 -3.6638033 0.01014502 0 0 Z " fill="#394EE0" transform="translate(12.5,5.734375)"/>
<path d="M0 0 C0.886875 -0.00257812 1.77375 -0.00515625 2.6875 -0.0078125 C4.0796875 0.00378906 4.0796875 0.00378906 5.5 0.015625 C6.428125 0.00789063 7.35625 0.00015625 8.3125 -0.0078125 C9.6428125 -0.00394531 9.6428125 -0.00394531 11 0 C11.8146875 0.00225586 12.629375 0.00451172 13.46875 0.00683594 C15.5 0.265625 15.5 0.265625 17.5 2.265625 C17.75878906 4.296875 17.75878906 4.296875 17.765625 6.765625 C17.76949219 8.0959375 17.76949219 8.0959375 17.7734375 9.453125 C17.76570313 10.38125 17.75796875 11.309375 17.75 12.265625 C17.75773437 13.19375 17.76546875 14.121875 17.7734375 15.078125 C17.77085938 15.965 17.76828125 16.851875 17.765625 17.765625 C17.76336914 18.5803125 17.76111328 19.395 17.75878906 20.234375 C17.5 22.265625 17.5 22.265625 15.5 24.265625 C13.46875 24.52441406 13.46875 24.52441406 11 24.53125 C10.113125 24.53382812 9.22625 24.53640625 8.3125 24.5390625 C7.384375 24.53132813 6.45625 24.52359375 5.5 24.515625 C4.1078125 24.52722656 4.1078125 24.52722656 2.6875 24.5390625 C1.3571875 24.53519531 1.3571875 24.53519531 0 24.53125 C-0.8146875 24.52899414 -1.629375 24.52673828 -2.46875 24.52441406 C-4.5 24.265625 -4.5 24.265625 -6.5 22.265625 C-6.75878906 20.234375 -6.75878906 20.234375 -6.765625 17.765625 C-6.76820313 16.87875 -6.77078125 15.991875 -6.7734375 15.078125 C-6.76183594 13.6859375 -6.76183594 13.6859375 -6.75 12.265625 C-6.75773438 11.3375 -6.76546875 10.409375 -6.7734375 9.453125 C-6.77085937 8.56625 -6.76828125 7.679375 -6.765625 6.765625 C-6.76336914 5.9509375 -6.76111328 5.13625 -6.75878906 4.296875 C-6.21708282 0.04499205 -3.6638033 0.01014502 0 0 Z M-2.5 6.265625 C-2.81991706 9.09432749 -2.81991706 9.09432749 -2.75 12.265625 C-2.75515625 13.338125 -2.7603125 14.410625 -2.765625 15.515625 C-2.78027649 18.40924678 -2.78027649 18.40924678 -0.5 20.265625 C2.32870249 20.58554206 2.32870249 20.58554206 5.5 20.515625 C6.5725 20.52078125 7.645 20.5259375 8.75 20.53125 C11.64362178 20.54590149 11.64362178 20.54590149 13.5 18.265625 C13.81991706 15.43692251 13.81991706 15.43692251 13.75 12.265625 C13.75515625 11.193125 13.7603125 10.120625 13.765625 9.015625 C13.78027649 6.12200322 13.78027649 6.12200322 11.5 4.265625 C8.67129751 3.94570794 8.67129751 3.94570794 5.5 4.015625 C4.4275 4.01046875 3.355 4.0053125 2.25 4 C-0.64362178 3.98534851 -0.64362178 3.98534851 -2.5 6.265625 Z " fill="#394EE0" transform="translate(12.5,33.734375)"/>
<path d="M0 0 C0.886875 -0.00257813 1.77375 -0.00515625 2.6875 -0.0078125 C4.0796875 0.00378906 4.0796875 0.00378906 5.5 0.015625 C6.428125 0.00789062 7.35625 0.00015625 8.3125 -0.0078125 C9.6428125 -0.00394531 9.6428125 -0.00394531 11 0 C11.8146875 0.00225586 12.629375 0.00451172 13.46875 0.00683594 C15.5 0.265625 15.5 0.265625 17.5 2.265625 C17.75878906 4.296875 17.75878906 4.296875 17.765625 6.765625 C17.76949219 8.0959375 17.76949219 8.0959375 17.7734375 9.453125 C17.76570313 10.38125 17.75796875 11.309375 17.75 12.265625 C17.75773437 13.19375 17.76546875 14.121875 17.7734375 15.078125 C17.77085938 15.965 17.76828125 16.851875 17.765625 17.765625 C17.76336914 18.5803125 17.76111328 19.395 17.75878906 20.234375 C17.5 22.265625 17.5 22.265625 15.5 24.265625 C13.46875 24.52441406 13.46875 24.52441406 11 24.53125 C10.113125 24.53382812 9.22625 24.53640625 8.3125 24.5390625 C7.384375 24.53132813 6.45625 24.52359375 5.5 24.515625 C4.1078125 24.52722656 4.1078125 24.52722656 2.6875 24.5390625 C1.3571875 24.53519531 1.3571875 24.53519531 0 24.53125 C-0.8146875 24.52899414 -1.629375 24.52673828 -2.46875 24.52441406 C-4.5 24.265625 -4.5 24.265625 -6.5 22.265625 C-6.75878906 20.234375 -6.75878906 20.234375 -6.765625 17.765625 C-6.76820312 16.87875 -6.77078125 15.991875 -6.7734375 15.078125 C-6.76183594 13.6859375 -6.76183594 13.6859375 -6.75 12.265625 C-6.75773437 11.3375 -6.76546875 10.409375 -6.7734375 9.453125 C-6.77085938 8.56625 -6.76828125 7.679375 -6.765625 6.765625 C-6.76336914 5.9509375 -6.76111328 5.13625 -6.75878906 4.296875 C-6.21708282 0.04499205 -3.6638033 0.01014502 0 0 Z M-2.5 6.265625 C-2.81991706 9.09432749 -2.81991706 9.09432749 -2.75 12.265625 C-2.75515625 13.338125 -2.7603125 14.410625 -2.765625 15.515625 C-2.78027649 18.40924678 -2.78027649 18.40924678 -0.5 20.265625 C2.32870249 20.58554206 2.32870249 20.58554206 5.5 20.515625 C6.5725 20.52078125 7.645 20.5259375 8.75 20.53125 C11.64362178 20.54590149 11.64362178 20.54590149 13.5 18.265625 C13.81991706 15.43692251 13.81991706 15.43692251 13.75 12.265625 C13.75515625 11.193125 13.7603125 10.120625 13.765625 9.015625 C13.78027649 6.12200322 13.78027649 6.12200322 11.5 4.265625 C8.67129751 3.94570794 8.67129751 3.94570794 5.5 4.015625 C4.4275 4.01046875 3.355 4.0053125 2.25 4 C-0.64362178 3.98534851 -0.64362178 3.98534851 -2.5 6.265625 Z " fill="#394EE0" transform="translate(40.5,5.734375)"/>
<path d="M0 0 C1.32 0 2.64 0 4 0 C4 3.3 4 6.6 4 10 C7.3 10 10.6 10 14 10 C14 11.32 14 12.64 14 14 C10.7 14 7.4 14 4 14 C4 17.3 4 20.6 4 24 C2.68 24 1.36 24 0 24 C0 20.7 0 17.4 0 14 C-3.3 14 -6.6 14 -10 14 C-10 12.68 -10 11.36 -10 10 C-6.7 10 -3.4 10 0 10 C0 6.7 0 3.4 0 0 Z " fill="#394FE0" transform="translate(44,34)"/>
</svg>
