<?xml version="1.0" encoding="UTF-8"?>
<svg version="1.1" xmlns="http://www.w3.org/2000/svg" width="64" height="64">
<path d="M0 0 C6.85406064 4.6999273 11.98701169 11.50306076 13.55078125 19.76171875 C14.66086516 28.72911536 13.28000904 36.34553338 8.328125 44.08203125 C2.57788453 51.30041822 -5.19535813 54.97514529 -14.26953125 56.01953125 C-22.55558789 56.31883748 -30.07266417 53.8354545 -36.57421875 48.65625 C-42.75743888 42.77774708 -46.24603961 34.70649933 -46.51171875 26.21875 C-46.38305387 17.48240461 -43.28619293 9.83655546 -37.265625 3.50390625 C-26.40490118 -5.55011871 -12.34746502 -6.84264491 0 0 Z M-31.0546875 10.55078125 C-34.31552511 15.46282625 -33.92743818 20.01472436 -33.82421875 25.78125 C-33.84355469 26.86148438 -33.86289062 27.94171875 -33.8828125 29.0546875 C-33.85413305 33.70075765 -33.69341521 36.89428605 -31.41015625 40.9921875 C-26.44369029 43.75939116 -21.78964441 43.50631729 -16.19921875 43.40625 C-15.11898437 43.42558594 -14.03875 43.44492187 -12.92578125 43.46484375 C-8.04584558 43.43472069 -5.09729369 43.37743276 -0.96875 40.63671875 C1.12643442 37.25574786 1.32987039 35.41067235 1.11328125 31.46875 C1.06816406 30.40011719 1.02304687 29.33148438 0.9765625 28.23046875 C0.91855469 27.42222656 0.86054687 26.61398438 0.80078125 25.78125 C0.14078125 25.78125 -0.51921875 25.78125 -1.19921875 25.78125 C-1.29009766 27.17150391 -1.29009766 27.17150391 -1.3828125 28.58984375 C-1.46660156 29.78738281 -1.55039062 30.98492187 -1.63671875 32.21875 C-1.71792969 33.41371094 -1.79914062 34.60867187 -1.8828125 35.83984375 C-2.19921875 38.78125 -2.19921875 38.78125 -3.19921875 39.78125 C-5.11380157 39.88096786 -7.03204192 39.91205589 -8.94921875 39.9140625 C-10.11453125 39.91535156 -11.27984375 39.91664062 -12.48046875 39.91796875 C-13.70765625 39.91410156 -14.93484375 39.91023438 -16.19921875 39.90625 C-18.04 39.91205078 -18.04 39.91205078 -19.91796875 39.91796875 C-21.08328125 39.91667969 -22.24859375 39.91539063 -23.44921875 39.9140625 C-24.526875 39.91293457 -25.60453125 39.91180664 -26.71484375 39.91064453 C-29.19921875 39.78125 -29.19921875 39.78125 -30.19921875 38.78125 C-30.29893661 36.86666718 -30.33002464 34.94842683 -30.33203125 33.03125 C-30.33332031 31.8659375 -30.33460937 30.700625 -30.3359375 29.5 C-30.33207031 28.2728125 -30.32820313 27.045625 -30.32421875 25.78125 C-30.32808594 24.5540625 -30.33195312 23.326875 -30.3359375 22.0625 C-30.33400391 20.31453125 -30.33400391 20.31453125 -30.33203125 18.53125 C-30.33033936 16.91476563 -30.33033936 16.91476563 -30.32861328 15.265625 C-30.19921875 12.78125 -30.19921875 12.78125 -29.19921875 11.78125 C-27.01629101 11.54643307 -24.82718701 11.36761677 -22.63671875 11.21875 C-21.43917969 11.13496094 -20.24164063 11.05117188 -19.0078125 10.96484375 C-18.08097656 10.90425781 -17.15414063 10.84367187 -16.19921875 10.78125 C-16.19921875 10.12125 -16.19921875 9.46125 -16.19921875 8.78125 C-18.09304039 8.64532979 -19.98971579 8.5488406 -21.88671875 8.46875 C-23.47033203 8.38173828 -23.47033203 8.38173828 -25.0859375 8.29296875 C-28.30589287 8.59133689 -28.30589287 8.59133689 -31.0546875 10.55078125 Z M-13.82421875 15.90625 C-14.530625 16.57140625 -15.23703125 17.2365625 -15.96484375 17.921875 C-20.08713459 21.88085876 -20.08713459 21.88085876 -21.72265625 27.2109375 C-21.4613157 29.70307996 -21.4613157 29.70307996 -20.19921875 30.78125 C-17.46925572 31.437719 -17.46925572 31.437719 -14.19921875 30.78125 C-11.43556749 28.8208014 -9.19769132 26.43524543 -6.88671875 23.96875 C-6.25443359 23.32615234 -5.62214844 22.68355469 -4.97070312 22.02148438 C-1.36569875 18.3669189 -1.36569875 18.3669189 0.80078125 13.78125 C-0.8226168 12.07240995 -2.49240928 10.40678283 -4.19921875 8.78125 C-8.17055913 8.78125 -11.13061041 13.25239972 -13.82421875 15.90625 Z " fill="#999999" transform="translate(48.19921875,6.21875)"/>
<path d="M0 0 C0.89102417 0.3259314 0.89102417 0.3259314 1.80004883 0.65844727 C2.45849609 2.45849609 2.45849609 2.45849609 2.80004883 4.65844727 C1.81542969 6.29003906 1.81542969 6.29003906 0.26489258 7.85766602 C-0.2977832 8.42678711 -0.86045898 8.9959082 -1.44018555 9.58227539 C-2.0415332 10.16428711 -2.64288086 10.74629883 -3.26245117 11.34594727 C-3.83672852 11.93956055 -4.41100586 12.53317383 -5.00268555 13.14477539 C-8.56591437 16.66783252 -10.97786837 18.44384112 -16.19995117 18.65844727 C-15.94687245 12.50019842 -13.08747491 9.78416242 -8.88745117 5.72094727 C-8.30543945 5.11959961 -7.72342773 4.51825195 -7.1237793 3.89868164 C-6.5546582 3.33600586 -5.98553711 2.77333008 -5.39916992 2.19360352 C-4.88185303 1.68192627 -4.36453613 1.17024902 -3.83154297 0.64306641 C-2.19995117 -0.34155273 -2.19995117 -0.34155273 0 0 Z " fill="#999999" transform="translate(44.199951171875,17.341552734375)"/>
</svg>
