<?xml version="1.0" encoding="UTF-8"?>
<svg version="1.1" xmlns="http://www.w3.org/2000/svg" width="64" height="64">
<path d="M0 0 C6.89589607 4.90788999 12.80180086 10.64018204 15 19 C15.98366542 28.65342241 16.03869958 37.53145026 10.11328125 45.5546875 C4.02212426 52.88958858 -2.62609111 57.19820242 -12.19140625 58.23828125 C-20.9265805 58.51170516 -28.55705754 56.35045273 -35.375 50.75 C-41.87057067 44.54786373 -45.02865689 38.42822959 -45.34350586 29.46655273 C-45.4941219 19.46401323 -43.61380351 12.67085818 -36.6875 5.125 C-27.06416884 -3.7839354 -11.73104416 -6.46236468 0 0 Z M-2.81591797 17.66821289 C-3.53408691 18.4286792 -4.25225586 19.18914551 -4.9921875 19.97265625 C-6.17361328 21.19758789 -6.17361328 21.19758789 -7.37890625 22.44726562 C-9.0412055 24.1889078 -10.69748825 25.93631256 -12.34765625 27.68945312 C-13.53294922 28.91245117 -13.53294922 28.91245117 -14.7421875 30.16015625 C-15.4626123 30.91949463 -16.18303711 31.67883301 -16.92529297 32.46118164 C-19 34 -19 34 -21.1640625 33.828125 C-23.33895818 32.84710822 -24.53012606 31.7035515 -26.125 29.9375 C-27.56934701 28.30167795 -27.56934701 28.30167795 -29 27 C-29.66 27 -30.32 27 -31 27 C-30.48223379 31.10447392 -28.35372556 32.95699523 -25.4375 35.75 C-24.61121094 36.54921875 -23.78492188 37.3484375 -22.93359375 38.171875 C-22.29550781 38.77515625 -21.65742188 39.3784375 -21 40 C-15.56266945 35.47008204 -10.53541069 30.65705784 -5.5625 25.625 C-4.83095703 24.88894531 -4.09941406 24.15289062 -3.34570312 23.39453125 C-1.56147277 21.59863926 0.22036124 19.80044015 2 18 C1.505 17.01 1.505 17.01 1 16 C-1.16550352 15.77449257 -1.16550352 15.77449257 -2.81591797 17.66821289 Z " fill="#43B677" transform="translate(47,5)"/>
</svg>
