<?xml version="1.0" encoding="UTF-8"?>
<svg version="1.1" xmlns="http://www.w3.org/2000/svg" width="64" height="64">
<path d="M0 0 C6.33346516 3.87873884 10.01575255 9.15586166 12.03125 16.24609375 C13.3764263 22.53479295 12.45521061 27.81455063 9.5 33.4375 C8.61548834 34.5066054 7.69892745 35.5501345 6.75 36.5625 C4.23801707 39.18203471 4.23801707 39.18203471 4.4375 42.125 C5.72719895 46.14582614 7.14687775 50.10481144 8.66015625 54.046875 C9.5 56.4375 9.5 56.4375 9.5 58.4375 C8.89671875 58.39109375 8.2934375 58.3446875 7.671875 58.296875 C2.47065798 57.92187136 2.47065798 57.92187136 -1.875 60.4375 C-2.41125 61.0975 -2.9475 61.7575 -3.5 62.4375 C-4.49 62.4375 -5.48 62.4375 -6.5 62.4375 C-7.17260351 60.66891309 -7.83788395 58.89753984 -8.5 57.125 C-8.87125 56.13886719 -9.2425 55.15273438 -9.625 54.13671875 C-10.5 51.4375 -10.5 51.4375 -10.5 48.4375 C-11.16 48.4375 -11.82 48.4375 -12.5 48.4375 C-12.603125 49.076875 -12.70625 49.71625 -12.8125 50.375 C-13.73903073 54.50227326 -15.11660629 58.44392949 -16.5 62.4375 C-18.96261792 62.0129107 -20.21672835 61.73899825 -21.95703125 59.88671875 C-23.42717553 58.22259737 -23.42717553 58.22259737 -25.76171875 58.14453125 C-26.96248047 58.19673828 -26.96248047 58.19673828 -28.1875 58.25 C-28.99574219 58.27707031 -29.80398437 58.30414063 -30.63671875 58.33203125 C-31.55904297 58.38423828 -31.55904297 58.38423828 -32.5 58.4375 C-32.04548816 56.70732492 -31.58621143 54.97840123 -31.125 53.25 C-30.86976562 52.28707031 -30.61453125 51.32414062 -30.3515625 50.33203125 C-29.5 47.4375 -29.5 47.4375 -28.39453125 44.6953125 C-27.36794562 42.5416804 -27.36794562 42.5416804 -27.5625 40.5 C-28.71821078 37.95743629 -30.47060677 36.16206215 -32.2890625 34.0703125 C-35.66303736 29.52088833 -35.96993305 23.88872333 -35.5 18.4375 C-33.93275529 11.03589054 -30.76466951 5.79754264 -24.82421875 1.1171875 C-17.78403105 -3.19436214 -7.47748599 -3.32172935 0 0 Z " fill="#FEE077" transform="translate(43.5,1.5625)"/>
<path d="M0 0 C4.00521387 2.88747977 7.46370991 6.48991981 9.6875 10.9375 C10.42558652 17.79116051 10.46455426 23.65142766 6.21875 29.3125 C1.77192227 34.03158249 -1.92508119 35.18933018 -8.25 35.5 C-14.09722315 35.2804547 -18.03833766 33.96507605 -22.3125 29.9375 C-26.52944092 24.77174737 -26.94239547 20.34753898 -26.6953125 13.7421875 C-25.79768586 7.16569844 -21.29185961 3.72614318 -16.3125 -0.0625 C-11.53581234 -2.45084383 -4.92259935 -1.57894696 0 0 Z " fill="#FEBB57" transform="translate(40.3125,6.0625)"/>
<path d="M0 0 C5.75 1.875 5.75 1.875 8 3 C15.99014815 3.59610861 22.58043146 3.01812958 30 0 C31.00399524 2.62353518 32.00334445 5.24867795 33 7.875 C33.42925781 8.99455078 33.42925781 8.99455078 33.8671875 10.13671875 C36 15.7734375 36 15.7734375 36 18 C35.39671875 17.95359375 34.7934375 17.9071875 34.171875 17.859375 C28.97065798 17.48437136 28.97065798 17.48437136 24.625 20 C24.08875 20.66 23.5525 21.32 23 22 C22.01 22 21.02 22 20 22 C19.32739649 20.23141309 18.66211605 18.46003984 18 16.6875 C17.62875 15.70136719 17.2575 14.71523438 16.875 13.69921875 C16 11 16 11 16 8 C15.34 8 14.68 8 14 8 C13.896875 8.639375 13.79375 9.27875 13.6875 9.9375 C12.76096927 14.06477326 11.38339371 18.00642949 10 22 C7.53738208 21.5754107 6.28327165 21.30149825 4.54296875 19.44921875 C3.07282447 17.78509737 3.07282447 17.78509737 0.73828125 17.70703125 C-0.46248047 17.75923828 -0.46248047 17.75923828 -1.6875 17.8125 C-2.49574219 17.83957031 -3.30398437 17.86664063 -4.13671875 17.89453125 C-5.05904297 17.94673828 -5.05904297 17.94673828 -6 18 C-4.41039668 11.76559832 -2.72399099 5.83712355 0 0 Z " fill="#FE4755" transform="translate(17,42)"/>
<path d="M0 0 C1.46396842 4.55344661 0.10596559 7.87292457 -2 12 C-5.68962423 17.83502874 -10.29101624 21.30025747 -17 23 C-24.41739275 23.97427959 -30.69551012 23.7108083 -37.05859375 19.55078125 C-41.42300342 16.06452242 -45.02054309 12.77812394 -45.875 7.0625 C-45.91625 6.051875 -45.9575 5.04125 -46 4 C-45.01 5.485 -45.01 5.485 -44 7 C-39.82193704 13.12866464 -36.24243418 17.58585527 -29 20 C-21.56220046 20.6721567 -15.11473953 20.62367329 -9 16 C-3.87106673 11.49027735 -1.68841385 6.5314957 0 0 Z " fill="#F9CE58" transform="translate(55,23)"/>
<path d="M0 0 C1.65 0.33 3.3 0.66 5 1 C5 7.6 5 14.2 5 21 C3.68 21 2.36 21 1 21 C0.67 16.38 0.34 11.76 0 7 C-0.99 7 -1.98 7 -3 7 C-2.38722388 4.03824877 -1.74627478 2.61941217 0 0 Z " fill="#FEE179" transform="translate(30,11)"/>
<path d="M0 0 C5.75 1.875 5.75 1.875 8 3 C15.99014815 3.59610861 22.58043146 3.01812958 30 0 C29.7265625 1.89453125 29.7265625 1.89453125 29 4 C20.81976305 7.80804134 13.64560718 8.7633623 5 6 C1.9375 4.5625 1.9375 4.5625 0 3 C0 2.01 0 1.02 0 0 Z " fill="#FC353C" transform="translate(17,42)"/>
<path d="M0 0 C0.7425 0.763125 1.485 1.52625 2.25 2.3125 C7.18985571 7.14008627 9.93519859 8.79902942 16.8125 9.25 C21.71465124 9.15888195 25.96904577 8.01556821 29.546875 4.46484375 C30.75836906 3.02534379 31.88737508 1.5172158 33 0 C33.495 0.99 33.495 0.99 34 2 C31.26471339 6.81410444 28.45549042 10.25307194 23 12 C16.02683391 13.02631193 10.33671834 12.66598203 4.55859375 8.4375 C2.46674918 6.50817969 1.12822157 4.60901239 0 2 C0 1.34 0 0.68 0 0 Z " fill="#FFB043" transform="translate(15,29)"/>
</svg>
