<?xml version="1.0" encoding="UTF-8"?>
<svg version="1.1" xmlns="http://www.w3.org/2000/svg" width="64" height="64">
<path d="M0 0 C3.27506715 1.21351552 4.96446938 2.86941233 7.40966797 5.35888672 C8.29138672 6.24898437 9.17310547 7.13908203 10.08154297 8.05615234 C11.44279297 9.4609082 11.44279297 9.4609082 12.83154297 10.89404297 C13.75451172 11.82667969 14.67748047 12.75931641 15.62841797 13.72021484 C21.92407613 20.12234369 23.78720443 22.71625709 23.89404297 31.76904297 C23.92304687 32.57664063 23.95205078 33.38423828 23.98193359 34.21630859 C24.02323485 38.09545002 23.81290703 40.49616969 22.04638672 44.01123047 C18.70301211 46.64990012 15.88785899 46.51632594 11.83154297 46.26904297 C9.43904297 46.16591797 7.04654297 46.06279297 4.58154297 45.95654297 C4.58154297 40.67654297 4.58154297 35.39654297 4.58154297 29.95654297 C1.28154297 29.95654297 -2.01845703 29.95654297 -5.41845703 29.95654297 C-5.41845703 35.23654297 -5.41845703 40.51654297 -5.41845703 45.95654297 C-7.81095703 46.05966797 -10.20345703 46.16279297 -12.66845703 46.26904297 C-13.41514648 46.31456299 -14.16183594 46.36008301 -14.93115234 46.40698242 C-18.41305308 46.47956104 -20.13434065 46.18565441 -22.85986328 43.98779297 C-26.10641963 37.67368839 -25.55612826 29.84652227 -24.41845703 22.95654297 C-22.84848535 19.31280273 -20.4118037 17.49327743 -17.41845703 14.95654297 C-16.19706655 13.68912106 -14.98866499 12.40912327 -13.78955078 11.12060547 C-12.45827921 9.71103344 -11.12623792 8.302188 -9.79345703 6.89404297 C-9.14820068 6.20093018 -8.50294434 5.50781738 -7.83813477 4.79370117 C-6.89949585 3.83596802 -6.89949585 3.83596802 -5.94189453 2.85888672 C-5.38421387 2.2761499 -4.8265332 1.69341309 -4.25195312 1.09301758 C-2.41845703 -0.04345703 -2.41845703 -0.04345703 0 0 Z " fill="#FFFFFF" transform="translate(32.41845703125,16.04345703125)"/>
<path d="M0 0 C2.99318601 2.02927865 5.50097713 4.39463573 8 7 C8.391875 6.175 8.78375 5.35 9.1875 4.5 C11 2 11 2 13.5625 1.5 C16 2 16 2 18 5 C18.07065617 7.04055005 18.08421976 9.08334257 18.0625 11.125 C18.36304685 16.753992 19.40862685 19.12761947 23.5625 22.9375 C24.38878906 23.58589844 25.21507812 24.23429687 26.06640625 24.90234375 C28 27 28 27 28.27734375 30.25390625 C28.14005859 31.61322266 28.14005859 31.61322266 28 33 C25.37841797 33.83569336 25.37841797 33.83569336 22 34 C19.63947407 32.26978678 17.91365988 30.73510519 15.9453125 28.62890625 C15.39890106 28.07259018 14.85248962 27.51627411 14.28952026 26.94309998 C12.55088625 25.16533167 10.83816929 23.36478676 9.125 21.5625 C7.94954608 20.35193134 6.77247964 19.1429262 5.59375 17.93554688 C2.71015299 14.97483794 -0.1504369 11.99346446 -3 9 C-6.96232285 10.58828019 -9.31025382 13.18455484 -12.2109375 16.26171875 C-13.21799869 17.30866591 -14.22583506 18.35486789 -15.234375 19.40039062 C-16.81142413 21.04561119 -18.38239344 22.69539271 -19.94042969 24.35864258 C-21.45231069 25.96733534 -22.98546511 27.55300688 -24.5234375 29.13671875 C-25.43013184 30.09280029 -26.33682617 31.04888184 -27.27099609 32.03393555 C-30 34 -30 34 -33.34228516 33.80395508 C-34.21933105 33.5386499 -35.09637695 33.27334473 -36 33 C-36.35107422 30.38989258 -36.35107422 30.38989258 -36 27 C-34.18764855 24.6512331 -32.50881663 22.78252472 -30.3828125 20.76171875 C-29.81045868 20.19548294 -29.23810486 19.62924713 -28.64840698 19.04585266 C-26.82088079 17.24521787 -24.97329748 15.46678091 -23.125 13.6875 C-21.88800975 12.47203811 -20.65231663 11.2552546 -19.41796875 10.03710938 C-7.48871326 -1.66995696 -7.48871326 -1.66995696 0 0 Z " fill="#FFFFFF" transform="translate(36,2)"/>
</svg>
