<?xml version="1.0" encoding="UTF-8"?>
<svg version="1.1" xmlns="http://www.w3.org/2000/svg" width="64" height="64">
<path d="M0 0 C5.23707561 3.15212664 9.17917678 7.36086805 11.5078125 13.05859375 C12.17107657 19.72568974 12.58085292 26.44060696 8.5078125 32.05859375 C2.67052714 38.84246592 -2.95710594 40.36314266 -11.4921875 41.05859375 C-14.57932373 41.47021191 -16.07004564 41.73878931 -18.5546875 43.62109375 C-20.4921875 45.05859375 -20.4921875 45.05859375 -24.4921875 45.05859375 C-24.4921875 46.70859375 -24.4921875 48.35859375 -24.4921875 50.05859375 C-26.1421875 50.05859375 -27.7921875 50.05859375 -29.4921875 50.05859375 C-29.8221875 51.70859375 -30.1521875 53.35859375 -30.4921875 55.05859375 C-32.9671875 55.55359375 -32.9671875 55.55359375 -35.4921875 56.05859375 C-35.4509375 56.84234375 -35.4096875 57.62609375 -35.3671875 58.43359375 C-35.4921875 61.05859375 -35.4921875 61.05859375 -37.4921875 63.05859375 C-40.08170195 63.20407209 -42.53404141 63.24508427 -45.1171875 63.18359375 C-46.41962402 63.16151855 -47.72206055 63.13944336 -49.06396484 63.11669922 C-50.19527832 63.09752441 -51.3265918 63.07834961 -52.4921875 63.05859375 C-54.16206073 50.62626104 -54.16206073 50.62626104 -50.4296875 44.88720703 C-47.57003323 41.94986684 -44.62637176 39.25665778 -41.4921875 36.62109375 C-34.36421169 31.10834226 -34.36421169 31.10834226 -29.84643555 23.80297852 C-29.83132551 21.44556458 -29.83132551 21.44556458 -30.4921875 18.05859375 C-29.39957134 11.70720716 -27.62749465 7.19188975 -22.4921875 3.05859375 C-21.7909375 2.48109375 -21.0896875 1.90359375 -20.3671875 1.30859375 C-14.85206209 -2.36815652 -6.05679066 -2.28790995 0 0 Z M-7.1796875 10.24609375 C-8.9296387 12.66269303 -8.86666365 14.13767982 -8.4921875 17.05859375 C-6.67015169 19.28826122 -6.67015169 19.28826122 -4.0546875 19.37109375 C-1.48848735 19.24402031 -1.48848735 19.24402031 0.3828125 17.87109375 C1.75063115 16.05041553 1.75063115 16.05041553 1.3828125 13.49609375 C0.66392082 10.73243265 0.66392082 10.73243265 -2.4921875 9.05859375 C-5.42719208 8.77084705 -5.42719208 8.77084705 -7.1796875 10.24609375 Z " fill="#FCBD28" transform="translate(52.4921875,0.94140625)"/>
<path d="M0 0 C2.77599238 0.95723875 3.96477752 1.95345601 5.75 4.3125 C7.97225058 10.86813922 8.04044061 17.93343819 5.8125 24.5 C1.88289645 29.92014283 -2.36353194 34.22862301 -9.20703125 35.3671875 C-11.46963138 35.61483527 -13.73151324 35.81516034 -16 36 C-19.08713623 36.41161816 -20.57785814 36.68019556 -23.0625 38.5625 C-25 40 -25 40 -29 40 C-29 41.65 -29 43.3 -29 45 C-30.65 45 -32.3 45 -34 45 C-34.33 46.65 -34.66 48.3 -35 50 C-37.475 50.495 -37.475 50.495 -40 51 C-39.95875 51.78375 -39.9175 52.5675 -39.875 53.375 C-40 56 -40 56 -42 58 C-45.2578125 58.1953125 -45.2578125 58.1953125 -49.125 58.125 C-51.04699219 58.09792969 -51.04699219 58.09792969 -53.0078125 58.0703125 C-53.99523438 58.04710937 -54.98265625 58.02390625 -56 58 C-49.14573655 49.81332024 -41.63366875 42.30014845 -34.1237793 34.71875 C-32.41176178 32.98502833 -30.70604347 31.24506434 -29.0065918 29.49902344 C-26.54088926 26.96651323 -24.05614936 24.45416477 -21.56640625 21.9453125 C-20.81202774 21.16310333 -20.05764923 20.38089417 -19.28041077 19.57498169 C-14.82926795 15.14097049 -12.29989258 13.26185251 -6 13 C-5.34 12.34 -4.68 11.68 -4 11 C-4.04125 10.071875 -4.0825 9.14375 -4.125 8.1875 C-3.96931046 4.21741665 -2.66929452 2.83612543 0 0 Z " fill="#FD9A23" transform="translate(57,6)"/>
</svg>
