<?xml version="1.0" encoding="UTF-8"?>
<svg version="1.1" xmlns="http://www.w3.org/2000/svg" width="64" height="64">
<path d="M0 0 C8.34468007 4.97590182 13.53387008 11.86345977 16.109375 21.2578125 C17.10789012 32.35758522 16.45884702 41.9922991 9.359375 51.0703125 C3.70168013 57.1280464 -3.34488592 60.84888618 -11.625 61.59375 C-22.35447774 61.83515993 -31.19802606 60.58332943 -39.359375 52.9609375 C-46.75303791 44.73737365 -48.47252567 36.02335615 -48.203125 25.24609375 C-47.72879865 16.86039919 -44.11592977 9.8548755 -37.890625 4.2578125 C-27.15195714 -3.81766573 -12.32399863 -5.91386512 0 0 Z " fill="#FDFDFE" transform="translate(47.890625,2.7421875)"/>
<path d="M0 0 C1.06412109 0.00064453 2.12824219 0.00128906 3.22460938 0.00195312 C4.89040039 0.02612305 4.89040039 0.02612305 6.58984375 0.05078125 C8.26143555 0.04594727 8.26143555 0.04594727 9.96679688 0.04101562 C18.26040236 0.09633986 18.26040236 0.09633986 20.52734375 2.36328125 C20.72265625 4.52734375 20.72265625 4.52734375 20.65234375 6.98828125 C20.63429688 7.80554688 20.61625 8.6228125 20.59765625 9.46484375 C20.57445313 10.09132813 20.55125 10.7178125 20.52734375 11.36328125 C19.53734375 11.36328125 18.54734375 11.36328125 17.52734375 11.36328125 C17.52734375 8.72328125 17.52734375 6.08328125 17.52734375 3.36328125 C9.60734375 3.85828125 9.60734375 3.85828125 1.52734375 4.36328125 C2.83703125 4.95496094 4.14671875 5.54664063 5.49609375 6.15625 C8.23943913 7.87084086 9.3435305 8.67411754 10.1875 11.83837891 C10.31518484 14.81786351 10.22532869 17.7002961 10.02734375 20.67578125 C9.99125 21.70251953 9.95515625 22.72925781 9.91796875 23.78710938 C9.82385834 26.3163267 9.69258967 28.83787865 9.52734375 31.36328125 C12.16734375 31.36328125 14.80734375 31.36328125 17.52734375 31.36328125 C17.52734375 29.05328125 17.52734375 26.74328125 17.52734375 24.36328125 C18.51734375 24.36328125 19.50734375 24.36328125 20.52734375 24.36328125 C20.72265625 30.41796875 20.72265625 30.41796875 20.52734375 32.36328125 C18.52734375 34.36328125 18.52734375 34.36328125 16.36328125 34.55859375 C15.55117188 34.53539062 14.7390625 34.5121875 13.90234375 34.48828125 C13.08507812 34.47023437 12.2678125 34.4521875 11.42578125 34.43359375 C10.79929687 34.41039062 10.1728125 34.3871875 9.52734375 34.36328125 C9.19734375 36.34328125 8.86734375 38.32328125 8.52734375 40.36328125 C2.06915222 41.3829957 -2.36004961 37.83908351 -7.47265625 34.36328125 C-10.09084733 31.74509017 -8.70251738 24.3929605 -8.71289062 20.63525391 C-8.72258551 18.50383321 -8.75359032 16.37338117 -8.78515625 14.2421875 C-8.79168725 12.88932866 -8.79693734 11.5364629 -8.80078125 10.18359375 C-8.81012695 8.94883301 -8.81947266 7.71407227 -8.82910156 6.44189453 C-8.47265625 3.36328125 -8.47265625 3.36328125 -7.29418945 1.4597168 C-4.77795895 -0.05487792 -2.92817252 -0.00893398 0 0 Z " fill="#070783" transform="translate(24.47265625,12.63671875)"/>
<path d="M0 0 C5.94 0 11.88 0 18 0 C18 2.64 18 5.28 18 8 C19.0725 8.0825 20.145 8.165 21.25 8.25 C25.2738451 9.05476902 26.48169253 9.87729874 29 13 C27.84826645 15.46800047 26.95216435 17.04783565 25 19 C24.01 19 23.02 19 22 19 C22.33 17.68 22.66 16.36 23 15 C19.04 15 15.08 15 11 15 C11 19.29 11 23.58 11 28 C10.67 28 10.34 28 10 28 C10.02525757 27.03960815 10.02525757 27.03960815 10.05102539 26.05981445 C10.1014707 23.14270241 10.08264556 20.22994347 10.0625 17.3125 C10.09021484 16.30509766 10.11792969 15.29769531 10.14648438 14.25976562 C10.09687817 11.25362941 9.96407723 8.85283565 9 6 C6.26063806 3.5933071 3.41436849 2.23048471 0 1 C0 0.67 0 0.34 0 0 Z " fill="#ECECF5" transform="translate(24,16)"/>
<path d="M0 0 C3.26954202 0.56371414 4.82575883 1.49962266 7 4 C5.84826645 6.46800047 4.95216435 8.04783565 3 10 C2.01 10 1.02 10 0 10 C0.33 8.68 0.66 7.36 1 6 C-2.63 6 -6.26 6 -10 6 C-10 5.34 -10 4.68 -10 4 C-6.37 4 -2.74 4 1 4 C0.67 2.68 0.34 1.36 0 0 Z " fill="#0E0E87" transform="translate(46,25)"/>
</svg>
