<?xml version="1.0" encoding="UTF-8"?>
<svg version="1.1" xmlns="http://www.w3.org/2000/svg" width="64" height="64">
<path d="M0 0 C0 1.32 0 2.64 0 4 C0.78246094 3.98839844 1.56492187 3.97679687 2.37109375 3.96484375 C3.38300781 3.95582031 4.39492188 3.94679688 5.4375 3.9375 C6.44683594 3.92589844 7.45617187 3.91429687 8.49609375 3.90234375 C11 4 11 4 12 5 C12.07319621 7.69654854 12.09242537 10.36691458 12.0625 13.0625 C12.05798828 13.82111328 12.05347656 14.57972656 12.04882812 15.36132812 C12.0370068 17.24091871 12.01907078 19.12046899 12 21 C10.35 21 8.7 21 7 21 C7 16.71 7 12.42 7 8 C4.69 8 2.38 8 0 8 C0 22.52 0 37.04 0 52 C2.31 52 4.62 52 7 52 C7 47.71 7 43.42 7 39 C8.65 39 10.3 39 12 39 C12.02684679 41.64590014 12.04676357 44.29153096 12.0625 46.9375 C12.07087891 47.69224609 12.07925781 48.44699219 12.08789062 49.22460938 C12.09652441 51.14994313 12.05224333 53.07535581 12 55 C11 56 11 56 8.49609375 56.09765625 C7.48675781 56.08605469 6.47742188 56.07445312 5.4375 56.0625 C4.42558594 56.05347656 3.41367187 56.04445312 2.37109375 56.03515625 C1.19740234 56.01775391 1.19740234 56.01775391 0 56 C0 57.65 0 59.3 0 61 C-5.35991428 60.38100727 -10.24587823 59.15303188 -15.375 57.5 C-16.09816406 57.27441406 -16.82132813 57.04882812 -17.56640625 56.81640625 C-22.86300223 55.13699777 -22.86300223 55.13699777 -24 54 C-24.09311889 52.49581261 -24.11746028 50.98728644 -24.11352539 49.48022461 C-24.11344986 48.51930405 -24.11337433 47.55838348 -24.11329651 46.56834412 C-24.10813522 45.523564 -24.10297394 44.47878387 -24.09765625 43.40234375 C-24.0962413 42.33834854 -24.09482635 41.27435333 -24.09336853 40.17811584 C-24.08775064 36.76454917 -24.07519511 33.351047 -24.0625 29.9375 C-24.05748731 27.62955824 -24.052924 25.32161545 -24.04882812 23.01367188 C-24.0377754 17.34242574 -24.02101987 11.67121747 -24 6 C-22.73474555 5.52494515 -21.46943512 5.05003942 -20.20410156 4.57519531 C-19.14718109 4.17847626 -19.14718109 4.17847626 -18.06890869 3.77374268 C-15.30441621 2.73986147 -12.53516573 1.72699531 -9.75 0.75 C-8.75484375 0.39421875 -7.7596875 0.0384375 -6.734375 -0.328125 C-3.965933 -1.00837075 -2.63278122 -0.97789017 0 0 Z M-6 29 C-6 30.98 -6 32.96 -6 35 C-5.67 35 -5.34 35 -5 35 C-5 33.02 -5 31.04 -5 29 C-5.33 29 -5.66 29 -6 29 Z " fill="#002A5B" transform="translate(31,2)"/>
<path d="M0 0 C5.03985731 0.44469329 7.37634988 2.71343362 11 6 C10.91979855 8.80705084 10.54452763 10.48206883 8.48046875 12.4453125 C3.65625 16 3.65625 16 0 16 C0 14.35 0 12.7 0 11 C-3.63 11 -7.26 11 -11 11 C-11 9.02 -11 7.04 -11 5 C-7.37 5 -3.74 5 0 5 C0 3.35 0 1.7 0 0 Z " fill="#002B5B" transform="translate(46,24)"/>
</svg>
