<?xml version="1.0" encoding="UTF-8"?>
<svg version="1.1" xmlns="http://www.w3.org/2000/svg" width="64" height="64">
<path d="M0 0 C3.79518942 1.41493125 6.10783669 3.40822661 8.0859375 6.9375 C9.59982529 10.604164 10.48440195 14.00368389 10 18 C9 19 9 19 5.4375 19.0625 C4.303125 19.041875 3.16875 19.02125 2 19 C1.81824219 18.44570313 1.63648438 17.89140625 1.44921875 17.3203125 C1.19785156 16.59585937 0.94648437 15.87140625 0.6875 15.125 C0.44386719 14.40570313 0.20023438 13.68640625 -0.05078125 12.9453125 C-0.96335547 10.66005095 -0.96335547 10.66005095 -4 9 C-7.07665027 9.08221709 -7.07665027 9.08221709 -10 10 C-12.34770643 13.52155964 -12.37669614 15.50771843 -12.625 19.6875 C-12.69976562 20.86699219 -12.77453125 22.04648437 -12.8515625 23.26171875 C-12.90054688 24.16535156 -12.94953125 25.06898437 -13 26 C-12.38125 26.103125 -11.7625 26.20625 -11.125 26.3125 C-9 27 -9 27 -7 30 C-6.61338501 34.26651117 -6.67083133 38.54211029 -6.68432617 42.82397461 C-6.68748393 44.9267978 -6.66402872 47.02821031 -6.63867188 49.13085938 C-6.63639848 50.4713524 -6.63569557 51.81184919 -6.63671875 53.15234375 C-6.63373779 54.36913818 -6.63075684 55.58593262 -6.62768555 56.83959961 C-7.04283167 60.36357768 -7.22665184 61.76835587 -10 64 C-12.88862699 64.40523354 -15.39172626 64.56107562 -18.28125 64.53125 C-19.4960907 64.53699036 -19.4960907 64.53699036 -20.73547363 64.54284668 C-22.44687138 64.54556724 -24.15831059 64.53819584 -25.86962891 64.52148438 C-28.49085087 64.50007473 -31.10933214 64.52127892 -33.73046875 64.546875 C-35.39323522 64.54423175 -37.05599999 64.53910681 -38.71875 64.53125 C-39.89540222 64.54339539 -39.89540222 64.54339539 -41.0958252 64.55578613 C-44.31047988 64.50032745 -46.44085248 64.45104476 -48.99267578 62.39257812 C-50.33155937 59.21248623 -50.38879054 56.63835406 -50.3984375 53.1875 C-50.40130768 52.53676514 -50.40417786 51.88603027 -50.40713501 51.21557617 C-50.40917056 49.84390387 -50.40367623 48.47220221 -50.39111328 47.10058594 C-50.37504985 45.00649835 -50.39097657 42.91434039 -50.41015625 40.8203125 C-50.40817372 39.48437076 -50.40432985 38.14843022 -50.3984375 36.8125 C-50.39505371 35.60207031 -50.39166992 34.39164063 -50.38818359 33.14453125 C-49.96396663 29.70810702 -49.61820167 28.26382999 -47 26 C-44.27270508 25.54589844 -44.27270508 25.54589844 -41.01953125 25.609375 C-39.85615234 25.62226563 -38.69277344 25.63515625 -37.49414062 25.6484375 C-36.27919922 25.68195312 -35.06425781 25.71546875 -33.8125 25.75 C-32.58595703 25.76804687 -31.35941406 25.78609375 -30.09570312 25.8046875 C-27.06302241 25.85188876 -24.03189913 25.91772323 -21 26 C-21.08121094 24.865625 -21.16242187 23.73125 -21.24609375 22.5625 C-21.92996243 8.84865334 -21.92996243 8.84865334 -17.625 4 C-12.31187056 -0.89769957 -7.01457173 -0.77142349 0 0 Z " fill="#FD9D36" transform="translate(52,0)"/>
<path d="M0 0 C0.84755859 0.01289063 1.69511719 0.02578125 2.56835938 0.0390625 C3.44943359 0.07257812 4.33050781 0.10609375 5.23828125 0.140625 C6.13095703 0.15867187 7.02363281 0.17671875 7.94335938 0.1953125 C10.14629143 0.24243404 12.34867183 0.31417761 14.55078125 0.390625 C14.55078125 4.350625 14.55078125 8.310625 14.55078125 12.390625 C12.57078125 13.380625 12.57078125 13.380625 10.55078125 14.390625 C10.38397016 17.30714674 10.38397016 17.30714674 10.55078125 20.390625 C11.21078125 21.050625 11.87078125 21.710625 12.55078125 22.390625 C12.67578125 25.015625 12.67578125 25.015625 12.55078125 27.390625 C13.21078125 27.390625 13.87078125 27.390625 14.55078125 27.390625 C14.55078125 31.020625 14.55078125 34.650625 14.55078125 38.390625 C11.44569152 38.49841982 8.34432707 38.57783129 5.23828125 38.640625 C4.35720703 38.67414063 3.47613281 38.70765625 2.56835938 38.7421875 C1.72080078 38.75507812 0.87324219 38.76796875 0 38.78125 C-0.78028564 38.80219727 -1.56057129 38.82314453 -2.36450195 38.84472656 C-4.44921875 38.390625 -4.44921875 38.390625 -6.20239258 36.79199219 C-7.86173196 33.59613119 -7.83760568 31.17335903 -7.84765625 27.578125 C-7.85052643 26.92739014 -7.85339661 26.27665527 -7.85635376 25.60620117 C-7.85838931 24.23452887 -7.85289498 22.86282721 -7.84033203 21.49121094 C-7.8242686 19.39712335 -7.84019532 17.30496539 -7.859375 15.2109375 C-7.85739247 13.87499576 -7.8535486 12.53905522 -7.84765625 11.203125 C-7.84427246 9.99269531 -7.84088867 8.78226563 -7.83740234 7.53515625 C-7.18367412 2.23954653 -5.43861114 -0.14600298 0 0 Z " fill="#FBC001" transform="translate(9.44921875,25.609375)"/>
<path d="M0 0 C3.79518942 1.41493125 6.10783669 3.40822661 8.0859375 6.9375 C9.59982529 10.604164 10.48440195 14.00368389 10 18 C9 19 9 19 5.4375 19.0625 C4.303125 19.041875 3.16875 19.02125 2 19 C1.72736328 18.16855469 1.72736328 18.16855469 1.44921875 17.3203125 C1.19785156 16.59585937 0.94648437 15.87140625 0.6875 15.125 C0.44386719 14.40570313 0.20023438 13.68640625 -0.05078125 12.9453125 C-0.96335547 10.66005095 -0.96335547 10.66005095 -4 9 C-7.07665027 9.08221709 -7.07665027 9.08221709 -10 10 C-12.34770643 13.52155964 -12.37669614 15.50771843 -12.625 19.6875 C-12.69976562 20.86699219 -12.77453125 22.04648437 -12.8515625 23.26171875 C-12.90054688 24.16535156 -12.94953125 25.06898437 -13 26 C-15.64 26 -18.28 26 -21 26 C-22.06918155 11.06540058 -22.06918155 11.06540058 -19.51171875 6.125 C-13.72232112 -0.39556379 -8.54833002 -0.94009767 0 0 Z " fill="#C1C1E3" transform="translate(52,0)"/>
<path d="M0 0 C2.375 0.6875 2.375 0.6875 3.375 1.6875 C3.5625 4.625 3.5625 4.625 3.375 7.6875 C2.715 8.3475 2.055 9.0075 1.375 9.6875 C0.7324765 11.75624034 0.7324765 11.75624034 0.375 13.6875 C-0.615 13.6875 -1.605 13.6875 -2.625 13.6875 C-2.934375 12.883125 -3.24375 12.07875 -3.5625 11.25 C-4.38835345 8.79669595 -4.38835345 8.79669595 -5.625 7.6875 C-5.875 4.75 -5.875 4.75 -5.625 1.6875 C-2.625 -0.3125 -2.625 -0.3125 0 0 Z " fill="#2B2E30" transform="translate(24.625,38.3125)"/>
<path d="M0 0 C0.598125 0.20625 1.19625 0.4125 1.8125 0.625 C0.8225 0.625 -0.1675 0.625 -1.1875 0.625 C-0.8575 4.915 -0.5275 9.205 -0.1875 13.625 C-0.8475 13.625 -1.5075 13.625 -2.1875 13.625 C-2.496875 12.820625 -2.80625 12.01625 -3.125 11.1875 C-3.95085345 8.73419595 -3.95085345 8.73419595 -5.1875 7.625 C-5.4375 4.6875 -5.4375 4.6875 -5.1875 1.625 C-2.1875 -0.375 -2.1875 -0.375 0 0 Z " fill="#4E4F4C" transform="translate(24.1875,38.375)"/>
</svg>
