<?xml version="1.0" encoding="UTF-8"?>
<svg version="1.1" xmlns="http://www.w3.org/2000/svg" width="64" height="64">
<path d="M0 0 C4.31633181 3.18586395 7.91120739 6.79612218 9.625 11.9375 C9.70473476 13.27275717 9.73271338 14.61162083 9.72265625 15.94921875 C9.71943359 16.70654297 9.71621094 17.46386719 9.71289062 18.24414062 C9.70032227 19.42266602 9.70032227 19.42266602 9.6875 20.625 C9.68298828 21.42228516 9.67847656 22.21957031 9.67382812 23.04101562 C9.6620585 25.00654257 9.64412348 26.97203085 9.625 28.9375 C10.24375 29.040625 10.8625 29.14375 11.5 29.25 C13.625 29.9375 13.625 29.9375 15.625 32.9375 C16.06957945 37.42360302 15.9491246 41.93180493 15.9375 46.4375 C15.95361328 47.68660156 15.96972656 48.93570313 15.98632812 50.22265625 C15.98697266 51.41761719 15.98761719 52.61257812 15.98828125 53.84375 C15.99126221 54.94009766 15.99424316 56.03644531 15.99731445 57.16601562 C15.56886962 60.35533085 15.11495464 61.01242326 12.625 62.9375 C10.61401367 63.31845093 10.61401367 63.31845093 8.29296875 63.32568359 C7.42196533 63.33514008 6.55096191 63.34459656 5.65356445 63.3543396 C4.71601318 63.34826691 3.77846191 63.34219421 2.8125 63.3359375 C1.84723389 63.33880768 0.88196777 63.34167786 -0.11254883 63.34463501 C-2.15348904 63.34667661 -4.19444877 63.34114007 -6.23535156 63.32861328 C-9.3630744 63.3125612 -12.48950496 63.32845895 -15.6171875 63.34765625 C-17.59896119 63.34567384 -19.58073408 63.3418302 -21.5625 63.3359375 C-22.50005127 63.34201019 -23.43760254 63.34808289 -24.40356445 63.3543396 C-25.27456787 63.34488312 -26.14557129 63.33542664 -27.04296875 63.32568359 C-27.80891357 63.32329681 -28.5748584 63.32091003 -29.36401367 63.31845093 C-31.92394701 62.8335103 -32.81260893 61.99154502 -34.375 59.9375 C-34.76318359 57.18188477 -34.76318359 57.18188477 -34.7734375 53.87890625 C-34.77923828 52.09323242 -34.77923828 52.09323242 -34.78515625 50.27148438 C-34.77355469 49.02689453 -34.76195312 47.78230469 -34.75 46.5 C-34.76160156 45.25927734 -34.77320313 44.01855469 -34.78515625 42.74023438 C-34.78128906 41.54849609 -34.77742188 40.35675781 -34.7734375 39.12890625 C-34.77005371 38.03779541 -34.76666992 36.94668457 -34.76318359 35.82250977 C-34.33087766 32.60957944 -33.69165094 31.18509365 -31.375 28.9375 C-30.385 28.9375 -29.395 28.9375 -28.375 28.9375 C-28.42140625 27.79152344 -28.4678125 26.64554688 -28.515625 25.46484375 C-28.55316909 23.93492209 -28.58956641 22.40497199 -28.625 20.875 C-28.67527344 19.74674805 -28.67527344 19.74674805 -28.7265625 18.59570312 C-28.83856765 12.12740568 -27.23248654 8.05348777 -22.77734375 3.1953125 C-16.02532201 -2.02625098 -8.12018978 -2.55635604 0 0 Z M-18.375 10.9375 C-20.46795225 14.92675126 -20.59009519 18.29028797 -20.5 22.75 C-20.45875 24.791875 -20.4175 26.83375 -20.375 28.9375 C-13.115 28.9375 -5.855 28.9375 1.625 28.9375 C2.31887278 18.14301146 2.31887278 18.14301146 -2.375 8.9375 C-7.87937847 4.71747651 -13.50819937 6.84496311 -18.375 10.9375 Z " fill="#FBB23B" transform="translate(41.375,1.0625)"/>
<path d="M0 0 C3.60389664 -0.11601004 7.20731467 -0.18718408 10.8125 -0.25 C11.83666016 -0.28351562 12.86082031 -0.31703125 13.91601562 -0.3515625 C14.89892578 -0.36445313 15.88183594 -0.37734375 16.89453125 -0.390625 C17.80050049 -0.41157227 18.70646973 -0.43251953 19.63989258 -0.45410156 C22 0 22 0 23.79418945 1.63745117 C25.32870071 4.64402446 25.38798214 6.82005139 25.3984375 10.19140625 C25.40423828 11.97901367 25.40423828 11.97901367 25.41015625 13.80273438 C25.39855469 15.04345703 25.38695313 16.28417969 25.375 17.5625 C25.38660156 18.80708984 25.39820312 20.05167969 25.41015625 21.33398438 C25.40628906 22.52443359 25.40242188 23.71488281 25.3984375 24.94140625 C25.39505371 26.03138916 25.39166992 27.12137207 25.38818359 28.24438477 C25 31 25 31 23.79418945 32.86035156 C21.37938236 34.39420916 19.74426248 34.34238605 16.89453125 34.29296875 C15.91162109 34.28330078 14.92871094 34.27363281 13.91601562 34.26367188 C12.37977539 34.2259668 12.37977539 34.2259668 10.8125 34.1875 C9.77673828 34.17396484 8.74097656 34.16042969 7.67382812 34.14648438 C5.11536301 34.11111389 2.5579422 34.06175544 0 34 C-0.144375 32.865625 -0.28875 31.73125 -0.4375 30.5625 C-0.61171478 27.19222799 -0.61171478 27.19222799 -2 26 C-2.14115161 23.32941149 -2.04247107 20.67567762 -2 18 C-2.99 17.67 -3.98 17.34 -5 17 C-5.6875 14.1875 -5.6875 14.1875 -6 11 C-4.75 9.125 -4.75 9.125 -3 8 C-2.01 8 -1.02 8 0 8 C0 5.36 0 2.72 0 0 Z " fill="#F59838" transform="translate(32,30)"/>
<path d="M0 0 C4.31633181 3.18586395 7.91120739 6.79612218 9.625 11.9375 C9.70473476 13.27275717 9.73271338 14.61162083 9.72265625 15.94921875 C9.71943359 16.70654297 9.71621094 17.46386719 9.71289062 18.24414062 C9.70032227 19.42266602 9.70032227 19.42266602 9.6875 20.625 C9.68298828 21.42228516 9.67847656 22.21957031 9.67382812 23.04101562 C9.6620585 25.00654257 9.64412348 26.97203085 9.625 28.9375 C6.985 28.9375 4.345 28.9375 1.625 28.9375 C1.58761719 28.06867187 1.55023438 27.19984375 1.51171875 26.3046875 C1.21175791 17.63748086 1.21175791 17.63748086 -2.375 9.9375 C-5.52810177 7.54549176 -8.50805998 7.54291428 -12.375 7.9375 C-15.44454532 9.26298548 -16.96196351 10.11728569 -18.4765625 13.125 C-19.51733413 16.38306771 -19.79326418 19.33885898 -20 22.75 C-20.07476562 23.91144531 -20.14953125 25.07289062 -20.2265625 26.26953125 C-20.27554687 27.14996094 -20.32453125 28.03039062 -20.375 28.9375 C-23.015 28.9375 -25.655 28.9375 -28.375 28.9375 C-28.48387507 26.24889069 -28.56270594 23.56476842 -28.625 20.875 C-28.65851562 20.12283203 -28.69203125 19.37066406 -28.7265625 18.59570312 C-28.83856765 12.12740568 -27.23248654 8.05348777 -22.77734375 3.1953125 C-16.02532201 -2.02625098 -8.12018978 -2.55635604 0 0 Z " fill="#BCC3CE" transform="translate(41.375,1.0625)"/>
<path d="M0 0 C0 2.64 0 5.28 0 8 C-0.55429687 8.23074219 -1.10859375 8.46148437 -1.6796875 8.69921875 C-2.40414063 9.02535156 -3.12859375 9.35148438 -3.875 9.6875 C-4.59429687 10.00074219 -5.31359375 10.31398438 -6.0546875 10.63671875 C-8.68083558 12.47713176 -9.13707008 13.92796947 -10 17 C-10.28121242 19.26296407 -10.48704889 21.53630662 -10.625 23.8125 C-10.69976562 24.97394531 -10.77453125 26.13539062 -10.8515625 27.33203125 C-10.90054687 28.21246094 -10.94953125 29.09289062 -11 30 C-13.64 30 -16.28 30 -19 30 C-19.10887507 27.31139069 -19.18770594 24.62726842 -19.25 21.9375 C-19.28351562 21.18533203 -19.31703125 20.43316406 -19.3515625 19.65820312 C-19.46356765 13.18990568 -17.85748654 9.11598777 -13.40234375 4.2578125 C-8.74674502 0.65748282 -5.82562046 -0.12945823 0 0 Z " fill="#C4CAD9" transform="translate(32,0)"/>
<path d="M0 0 C1.9375 1.125 1.9375 1.125 3 3 C2.77669287 6.64734979 2.61627165 8.38372835 0 11 C-0.40047444 13.32275177 -0.7397104 15.65739357 -1 18 C-2.32 18 -3.64 18 -5 18 C-5 15.36 -5 12.72 -5 10 C-5.99 9.67 -6.98 9.34 -8 9 C-9.3260274 3.57534247 -9.3260274 3.57534247 -7.9375 1.125 C-5.14003001 -0.49933741 -3.17634515 -0.39704314 0 0 Z " fill="#59585B" transform="translate(35,38)"/>
<path d="M0 0 C0 5.94 0 11.88 0 18 C-0.66 18 -1.32 18 -2 18 C-2 15.36 -2 12.72 -2 10 C-2.99 9.67 -3.98 9.34 -5 9 C-5.6875 6.1875 -5.6875 6.1875 -6 3 C-4.11242974 0.16864461 -3.46862106 0 0 0 Z " fill="#676562" transform="translate(32,38)"/>
</svg>
