<?xml version="1.0" encoding="UTF-8"?>
<svg version="1.1" xmlns="http://www.w3.org/2000/svg" width="64" height="64">
<path d="M0 0 C8.34468007 4.97590182 13.53387008 11.86345977 16.109375 21.2578125 C17.10789012 32.35758522 16.45884702 41.9922991 9.359375 51.0703125 C3.70168013 57.1280464 -3.34488592 60.84888618 -11.625 61.59375 C-22.35447774 61.83515993 -31.19802606 60.58332943 -39.359375 52.9609375 C-46.75303791 44.73737365 -48.47252567 36.02335615 -48.203125 25.24609375 C-47.72879865 16.86039919 -44.11592977 9.8548755 -37.890625 4.2578125 C-27.15195714 -3.81766573 -12.32399863 -5.91386512 0 0 Z " fill="#0399FF" transform="translate(47.890625,2.7421875)"/>
<path d="M0 0 C2.43815057 1.04331903 4.2825528 2.16555663 6.3515625 3.80859375 C8.24333493 5.17587003 9.69782689 5.66641981 12 6 C12.66 5.67 13.32 5.34 14 5 C14 8.96 14 12.92 14 17 C8.38681376 18.12263725 6.31421733 17.53121516 1 16 C1.33 14.35 1.66 12.7 2 11 C-1.56221701 8.32833724 -4.46354683 7.45785203 -8.9453125 7.65234375 C-13.19823378 8.3719445 -16.57302464 10.27415959 -19.32421875 13.6015625 C-20.28469666 15.02374382 -21.15221343 16.50789563 -22 18 C-23.98 17.67 -25.96 17.34 -28 17 C-27.86304578 11.52183121 -25.52690203 8.77458088 -22.08203125 4.83203125 C-15.53615367 -0.92784978 -8.32768235 -1.05522002 0 0 Z " fill="#F5FBFF" transform="translate(39,10)"/>
<path d="M0 0 C4.08276326 0.40158327 8.05208447 0.84852464 12 2 C11.67 3.65 11.34 5.3 11 7 C14.72836896 9.79627672 17.53777991 10.45862257 22.0703125 10.3046875 C24.82639823 9.86951607 26.74658175 8.59064818 29 7 C29.66 7 30.32 7 31 7 C31.2475 6.21625 31.495 5.4325 31.75 4.625 C33 2 33 2 34.875 0.5625 C37 0 37 0 39.25 0.875 C39.8275 1.24625 40.405 1.6175 41 2 C40.20936594 7.89381754 37.17486548 10.98169197 33 15 C27.60759751 19.01295069 21.45462248 18.63446486 15 18 C11.41111642 17.1585871 8.04731489 16.24569208 5.59765625 13.33203125 C5.07042969 12.89246094 4.54320312 12.45289063 4 12 C1.34533951 12.23043864 1.34533951 12.23043864 -1 13 C-1.02686553 11.02090602 -1.04633375 9.04171029 -1.0625 7.0625 C-1.07410156 5.96035156 -1.08570313 4.85820313 -1.09765625 3.72265625 C-1 1 -1 1 0 0 Z " fill="#F7FBFF" transform="translate(12,36)"/>
</svg>
