<?xml version="1.0" encoding="UTF-8"?>
<svg version="1.1" xmlns="http://www.w3.org/2000/svg" width="64" height="64">
<path d="M0 0 C2.70552388 2.19823815 4.44778333 3.89556667 6 7 C6.07065617 9.04055005 6.08421976 11.08334257 6.0625 13.125 C6.05347656 14.22070312 6.04445312 15.31640625 6.03515625 16.4453125 C6.02355469 17.28835937 6.01195312 18.13140625 6 19 C6.94875 19.12375 7.8975 19.2475 8.875 19.375 C12 20 12 20 14 22 C14 22.99 14 23.98 14 25 C15.05960938 24.97679688 16.11921875 24.95359375 17.2109375 24.9296875 C18.5989513 24.91093056 19.9869727 24.89273028 21.375 24.875 C22.42300781 24.84986328 22.42300781 24.84986328 23.4921875 24.82421875 C25.32897486 24.80655733 27.16601963 24.89696739 29 25 C31 27 31 27 31.265625 30.1875 C31.26046875 31.445625 31.2553125 32.70375 31.25 34 C31.25773437 35.8871875 31.25773437 35.8871875 31.265625 37.8125 C31 41 31 41 29 43 C25.7421875 43.1953125 25.7421875 43.1953125 21.875 43.125 C19.95300781 43.09792969 19.95300781 43.09792969 17.9921875 43.0703125 C17.00476562 43.04710937 16.01734375 43.02390625 15 43 C14.9071875 44.8871875 14.9071875 44.8871875 14.8125 46.8125 C14.70703125 48.95703125 14.70703125 48.95703125 14 51 C10.03843935 54.00284559 7.0311446 54.38458951 2.125 54.3984375 C0.15273438 54.40423828 0.15273438 54.40423828 -1.859375 54.41015625 C-2.53935547 54.40387207 -3.21933594 54.39758789 -3.91992188 54.39111328 C-5.99415892 54.37504525 -8.06644796 54.39098732 -10.140625 54.41015625 C-11.45546875 54.40628906 -12.7703125 54.40242188 -14.125 54.3984375 C-15.32382812 54.39505371 -16.52265625 54.39166992 -17.7578125 54.38818359 C-21.30208102 53.96383217 -23.19756532 53.18459022 -26 51 C-27.56776025 46.29671926 -27.22579311 41.55110228 -27.25 36.625 C-27.270625 35.5834375 -27.29125 34.541875 -27.3125 33.46875 C-27.36275634 23.64363622 -27.36275634 23.64363622 -24 20 C-20.8125 19.1875 -20.8125 19.1875 -18 19 C-18.04640625 18.20335938 -18.0928125 17.40671875 -18.140625 16.5859375 C-18.43530103 7.93509111 -18.43530103 7.93509111 -16.3125 3.375 C-11.52411684 -1.54279892 -6.44043091 -1.84345667 0 0 Z M-8 7 C-10.24324836 8.81193006 -10.24324836 8.81193006 -10.1953125 11.3828125 C-10.17210938 12.28773437 -10.14890625 13.19265625 -10.125 14.125 C-10.10695313 15.03507812 -10.08890625 15.94515625 -10.0703125 16.8828125 C-10.04710938 17.58148438 -10.02390625 18.28015625 -10 19 C-7.36 19 -4.72 19 -2 19 C-1.94604522 17.37536158 -1.90722805 15.75021459 -1.875 14.125 C-1.84019531 12.76761719 -1.84019531 12.76761719 -1.8046875 11.3828125 C-1.75675164 8.81193006 -1.75675164 8.81193006 -4 7 C-5.32 7 -6.64 7 -8 7 Z " fill="#22A7FD" transform="translate(33,10)"/>
<path d="M0 0 C1.28131554 -0.00945648 1.28131554 -0.00945648 2.58851624 -0.019104 C3.96673805 -0.01303131 3.96673805 -0.01303131 5.37280273 -0.00683594 C6.79096535 -0.00970612 6.79096535 -0.00970612 8.23777771 -0.01263428 C10.23583238 -0.01399512 12.23389592 -0.01030572 14.23193359 -0.00195312 C17.29797101 0.00875962 20.36342406 -0.00185798 23.42944336 -0.01464844 C25.36889778 -0.01332706 27.30835184 -0.01076511 29.24780273 -0.00683594 C30.16864151 -0.0108844 31.08948029 -0.01493286 32.03822327 -0.019104 C32.88928146 -0.01279968 33.74033966 -0.00649536 34.6171875 0 C35.36758804 0.00159119 36.11798859 0.00318237 36.89112854 0.00482178 C38.74389648 0.25878906 38.74389648 0.25878906 40.74389648 2.25878906 C41.00952148 5.44628906 41.00952148 5.44628906 40.99389648 9.25878906 C41.00163086 11.14597656 41.00163086 11.14597656 41.00952148 13.07128906 C40.74389648 16.25878906 40.74389648 16.25878906 38.74389648 18.25878906 C35.76635742 18.40649414 35.76635742 18.40649414 31.97827148 18.27832031 C30.59938435 18.24813711 29.22047692 18.21886967 27.84155273 18.19042969 C25.67087498 18.13482781 23.50121722 18.07155931 21.33129883 17.99145508 C19.23435345 17.91842832 17.13862533 17.87755858 15.04077148 17.84082031 C13.78619141 17.80190674 12.53161133 17.76299316 11.23901367 17.72290039 C6.64034167 18.42799155 5.03607765 20.05728506 1.74389648 23.25878906 C1.74389648 21.27878906 1.74389648 19.29878906 1.74389648 17.25878906 C0.07327148 17.32066406 0.07327148 17.32066406 -1.63110352 17.38378906 C-5.25610352 17.25878906 -5.25610352 17.25878906 -7.25610352 15.25878906 C-7.55688477 12.29003906 -7.55688477 12.29003906 -7.56860352 8.75878906 C-7.58536133 7.59347656 -7.60211914 6.42816406 -7.61938477 5.22753906 C-7.49950195 4.24785156 -7.37961914 3.26816406 -7.25610352 2.25878906 C-4.16204432 0.19608293 -3.50094528 0.00741572 0 0 Z " fill="#FCB74F" transform="translate(23.256103515625,34.7412109375)"/>
<path d="M0 0 C5.20070178 4.41072176 7.31926593 9.49821292 9 16 C10.32 16 11.64 16 13 16 C11.73058503 19.91402949 10.48832306 21.79072873 7 24 C2 18.25 2 18.25 2 16 C2.66 15.67 3.32 15.34 4 15 C1.00486358 7.89976483 -2.57241943 3.28035765 -9.875 0.1875 C-16.28186043 -1.94406003 -21.91201123 -1.59682466 -28.1171875 1.03125 C-36.31434915 5.24887674 -38.95739347 11.73908022 -41.75 20 C-42.17280893 21.33139832 -42.59179373 22.6640522 -43 24 C-43.66 24 -44.32 24 -45 24 C-45.65943439 15.06100047 -43.75820237 10.13730355 -38.875 2.8125 C-28.81718016 -8.61968031 -11.77021233 -7.97070519 0 0 Z " fill="#FFB74C" transform="translate(45,6)"/>
<path d="M0 0 C0.85428589 -0.00637985 1.70857178 -0.0127597 2.58874512 -0.01933289 C3.51272095 -0.02044571 4.43669678 -0.02155853 5.38867188 -0.02270508 C6.33552856 -0.02603348 7.28238525 -0.02936188 8.25793457 -0.03279114 C10.26195794 -0.03785879 12.26598976 -0.04019951 14.27001953 -0.04003906 C17.34486691 -0.04222739 20.41935669 -0.06038987 23.49414062 -0.0793457 C25.43814981 -0.08227922 27.3821607 -0.08426429 29.32617188 -0.08520508 C30.71213562 -0.09598335 30.71213562 -0.09598335 32.12609863 -0.10697937 C32.98038452 -0.10390274 33.83467041 -0.10082611 34.71484375 -0.09765625 C35.4682605 -0.09908127 36.22167725 -0.10050629 36.9979248 -0.10197449 C38.85742188 0.14526367 38.85742188 0.14526367 40.85742188 2.14526367 C41.05273438 5.40307617 41.05273438 5.40307617 40.98242188 9.27026367 C40.964375 10.5515918 40.94632813 11.83291992 40.92773438 13.15307617 C40.90453125 14.14049805 40.88132813 15.12791992 40.85742188 16.14526367 C40.19742188 16.14526367 39.53742187 16.14526367 38.85742188 16.14526367 C38.79683594 15.36280273 38.73625 14.5803418 38.67382812 13.77416992 C38.59003906 12.76225586 38.50625 11.7503418 38.41992188 10.70776367 C38.33871094 9.69842773 38.2575 8.6890918 38.17382812 7.64916992 C38.12530719 5.20885589 38.12530719 5.20885589 36.85742188 4.14526367 C35.5075844 4.02341224 34.15167486 3.96759537 32.79663086 3.93994141 C31.50540565 3.91002357 31.50540565 3.91002357 30.18809509 3.87950134 C29.25268387 3.86278885 28.31727264 3.84607635 27.35351562 3.82885742 C25.92399315 3.79768578 25.92399315 3.79768578 24.46559143 3.7658844 C21.40877777 3.7002819 18.35187531 3.64145449 15.29492188 3.58276367 C13.22785525 3.53958861 11.16079773 3.49597467 9.09375 3.4519043 C4.01506592 3.34458966 -1.06370783 3.24335276 -6.14257812 3.14526367 C-6.14257812 2.48526367 -6.14257812 1.82526367 -6.14257812 1.14526367 C-3.85054824 -0.00075127 -2.54801122 0.01289128 0 0 Z " fill="#D39522" transform="translate(23.142578125,34.854736328125)"/>
<path d="M0 0 C5.28 0 10.56 0 16 0 C15.73831243 5.32098062 15.73831243 5.32098062 15 8 C12.5625 10.0625 12.5625 10.0625 10 11 C9.34 10.67 8.68 10.34 8 10 C8.639375 9.4225 9.27875 8.845 9.9375 8.25 C12.34096628 5.98696351 12.34096628 5.98696351 13 2 C8.38 2 3.76 2 -1 2 C-0.67 1.34 -0.34 0.68 0 0 Z " fill="#0588E4" transform="translate(32,53)"/>
<path d="M0 0 C4.01349645 0.28001138 5.72035142 0.75763789 8.8125 3.4375 C12.19276931 7.39724405 12.11306622 9.46724583 12.0625 14.625 C12.05347656 15.81351563 12.04445313 17.00203125 12.03515625 18.2265625 C12.02355469 19.14179688 12.01195312 20.05703125 12 21 C11.34 21 10.68 21 10 21 C9.95101562 20.19175781 9.90203125 19.38351563 9.8515625 18.55078125 C9.77679688 17.48214844 9.70203125 16.41351562 9.625 15.3125 C9.55539063 14.25675781 9.48578125 13.20101563 9.4140625 12.11328125 C9.00711327 9.05348376 8.40540664 6.74201714 7 4 C4.54295238 2.76709799 4.54295238 2.76709799 2 2 C1.34 1.34 0.68 0.68 0 0 Z " fill="#0487E4" transform="translate(27,9)"/>
<path d="M0 0 C1.98 0 3.96 0 6 0 C6.33 1.65 6.66 3.3 7 5 C7.64324219 4.18144531 8.28648438 3.36289062 8.94921875 2.51953125 C13.03090799 -0.85139008 15.70940452 -0.59053957 20.8125 -0.3125 C21.60076172 -0.28994141 22.38902344 -0.26738281 23.20117188 -0.24414062 C25.13493929 -0.18554161 27.06772167 -0.09586827 29 0 C29 0.33 29 0.66 29 1 C27.92621094 0.979375 26.85242188 0.95875 25.74609375 0.9375 C17.63442738 0.76905845 17.63442738 0.76905845 10.4140625 3.84765625 C8.76002893 5.82621539 7.3596535 7.81359748 6 10 C5.67 10 5.34 10 5 10 C5 7.03 5 4.06 5 1 C3.35 1 1.7 1 0 1 C0 0.67 0 0.34 0 0 Z " fill="#4B96BB" transform="translate(19,52)"/>
<path d="M0 0 C0.66 0 1.32 0 2 0 C2.33 0.66 2.66 1.32 3 2 C3.66 2 4.32 2 5 2 C5 3.98 5 5.96 5 8 C4.34 8 3.68 8 3 8 C2.67 8.66 2.34 9.32 2 10 C1.34 10 0.68 10 0 10 C-0.33 9.34 -0.66 8.68 -1 8 C-1.66 8 -2.32 8 -3 8 C-3 6.02 -3 4.04 -3 2 C-2.34 2 -1.68 2 -1 2 C-0.67 1.34 -0.34 0.68 0 0 Z " fill="#EDEADD" transform="translate(39,39)"/>
<path d="M0 0 C0.66 0 1.32 0 2 0 C2.33 0.66 2.66 1.32 3 2 C3.66 2 4.32 2 5 2 C5 3.98 5 5.96 5 8 C4.34 8 3.68 8 3 8 C2.67 8.66 2.34 9.32 2 10 C1.34 10 0.68 10 0 10 C0 9.01 0 8.02 0 7 C-0.99 7.33 -1.98 7.66 -3 8 C-3 6.02 -3 4.04 -3 2 C-2.01 2.33 -1.02 2.66 0 3 C0 2.01 0 1.02 0 0 Z " fill="#EFE4CE" transform="translate(51,39)"/>
<path d="M0 0 C0.33 0.99 0.66 1.98 1 3 C1.99 2.67 2.98 2.34 4 2 C4 3.98 4 5.96 4 8 C3.01 7.67 2.02 7.34 1 7 C0.67 7.99 0.34 8.98 0 10 C-1.32 9.34 -2.64 8.68 -4 8 C-4 7.34 -4 6.68 -4 6 C-3.34 6 -2.68 6 -2 6 C-2 5.34 -2 4.68 -2 4 C-2.66 4 -3.32 4 -4 4 C-4 3.34 -4 2.68 -4 2 C-2.68 1.34 -1.36 0.68 0 0 Z " fill="#EDECE4" transform="translate(28,39)"/>
<path d="M0 0 C0.99 0.33 1.98 0.66 3 1 C2.34 1.66 1.68 2.32 1 3 C0.53837573 5.43252661 0.53837573 5.43252661 0.375 8.125 C0.30023437 9.03507812 0.22546875 9.94515625 0.1484375 10.8828125 C0.09945313 11.58148438 0.05046875 12.28015625 0 13 C-0.99 13.33 -1.98 13.66 -3 14 C-3.08114106 12.22992286 -3.13925505 10.45877902 -3.1875 8.6875 C-3.22230469 7.70136719 -3.25710937 6.71523438 -3.29296875 5.69921875 C-3 3 -3 3 -1.48828125 1.14453125 C-0.99714844 0.76683594 -0.50601562 0.38914062 0 0 Z " fill="#078AE7" transform="translate(23,16)"/>
<path d="M0 0 C2 3 2 3 1.625 5.6875 C1.41875 6.450625 1.2125 7.21375 1 8 C0.67 7.34 0.34 6.68 0 6 C-0.99 6.33 -1.98 6.66 -3 7 C-3 5.02 -3 3.04 -3 1 C-2.01 1.33 -1.02 1.66 0 2 C0 1.34 0 0.68 0 0 Z " fill="#EBF1F1" transform="translate(51,40)"/>
<path d="M0 0 C4.21912747 0.4794463 6.79663178 1.16625119 10 4 C9.67 4.99 9.34 5.98 9 7 C8.34 6.67 7.68 6.34 7 6 C7 5.34 7 4.68 7 4 C6.21625 3.71125 5.4325 3.4225 4.625 3.125 C2 2 2 2 0 0 Z " fill="#0B94EB" transform="translate(27,9)"/>
<path d="M0 0 C4.75 0.75 4.75 0.75 7 3 C7 3.99 7 4.98 7 6 C3.31197956 4.77065985 2.27643027 3.06140622 0 0 Z " fill="#098DE8" transform="translate(40,29)"/>
</svg>
