<?xml version="1.0" encoding="UTF-8"?>
<svg version="1.1" xmlns="http://www.w3.org/2000/svg" width="64" height="64">
<path d="M0 0 C6.33346516 3.87873884 10.01575255 9.15586166 12.03125 16.24609375 C13.3764263 22.53479295 12.45521061 27.81455063 9.5 33.4375 C8.61548834 34.5066054 7.69892745 35.5501345 6.75 36.5625 C4.23801707 39.18203471 4.23801707 39.18203471 4.4375 42.125 C5.72719895 46.14582614 7.14687775 50.10481144 8.66015625 54.046875 C9.5 56.4375 9.5 56.4375 9.5 58.4375 C8.89671875 58.39109375 8.2934375 58.3446875 7.671875 58.296875 C2.47065798 57.92187136 2.47065798 57.92187136 -1.875 60.4375 C-2.41125 61.0975 -2.9475 61.7575 -3.5 62.4375 C-4.49 62.4375 -5.48 62.4375 -6.5 62.4375 C-7.17260351 60.66891309 -7.83788395 58.89753984 -8.5 57.125 C-8.87125 56.13886719 -9.2425 55.15273438 -9.625 54.13671875 C-10.5 51.4375 -10.5 51.4375 -10.5 48.4375 C-11.16 48.4375 -11.82 48.4375 -12.5 48.4375 C-12.603125 49.076875 -12.70625 49.71625 -12.8125 50.375 C-13.73903073 54.50227326 -15.11660629 58.44392949 -16.5 62.4375 C-18.96261792 62.0129107 -20.21672835 61.73899825 -21.95703125 59.88671875 C-23.42717553 58.22259737 -23.42717553 58.22259737 -25.76171875 58.14453125 C-26.96248047 58.19673828 -26.96248047 58.19673828 -28.1875 58.25 C-28.99574219 58.27707031 -29.80398437 58.30414063 -30.63671875 58.33203125 C-31.55904297 58.38423828 -31.55904297 58.38423828 -32.5 58.4375 C-32.04548816 56.70732492 -31.58621143 54.97840123 -31.125 53.25 C-30.86976562 52.28707031 -30.61453125 51.32414062 -30.3515625 50.33203125 C-29.5 47.4375 -29.5 47.4375 -28.39453125 44.6953125 C-27.36794562 42.5416804 -27.36794562 42.5416804 -27.5625 40.5 C-28.71821078 37.95743629 -30.47060677 36.16206215 -32.2890625 34.0703125 C-35.66303736 29.52088833 -35.96993305 23.88872333 -35.5 18.4375 C-33.93275529 11.03589054 -30.76466951 5.79754264 -24.82421875 1.1171875 C-17.78403105 -3.19436214 -7.47748599 -3.32172935 0 0 Z " fill="#DDDDDD" transform="translate(43.5,1.5625)"/>
<path d="M0 0 C4.42865212 2.60605972 8.71800265 5.80054533 10.296875 10.90234375 C11.45202537 16.72048646 11.66562669 22.15983822 8.66015625 27.421875 C5.98471037 31.09318129 3.1391845 33.75403673 -1.27734375 35.046875 C-7.14837536 35.89599114 -12.51264162 35.95622555 -17.77734375 32.984375 C-22.45538765 29.47584208 -24.82191599 25.94723071 -25.72265625 20.2109375 C-26.02863293 14.92951392 -25.7912713 10.95944534 -22.71484375 6.546875 C-16.65078611 -0.23808459 -8.95784704 -3.74908178 0 0 Z " fill="#9F9F9F" transform="translate(39.27734375,5.953125)"/>
<path d="M0 0 C5.75 1.875 5.75 1.875 8 3 C15.99014815 3.59610861 22.58043146 3.01812958 30 0 C31.00399524 2.62353518 32.00334445 5.24867795 33 7.875 C33.42925781 8.99455078 33.42925781 8.99455078 33.8671875 10.13671875 C36 15.7734375 36 15.7734375 36 18 C35.39671875 17.95359375 34.7934375 17.9071875 34.171875 17.859375 C28.97065798 17.48437136 28.97065798 17.48437136 24.625 20 C24.08875 20.66 23.5525 21.32 23 22 C22.01 22 21.02 22 20 22 C19.32739649 20.23141309 18.66211605 18.46003984 18 16.6875 C17.62875 15.70136719 17.2575 14.71523438 16.875 13.69921875 C16 11 16 11 16 8 C15.34 8 14.68 8 14 8 C13.896875 8.639375 13.79375 9.27875 13.6875 9.9375 C12.76096927 14.06477326 11.38339371 18.00642949 10 22 C7.53738208 21.5754107 6.28327165 21.30149825 4.54296875 19.44921875 C3.07282447 17.78509737 3.07282447 17.78509737 0.73828125 17.70703125 C-0.46248047 17.75923828 -0.46248047 17.75923828 -1.6875 17.8125 C-2.49574219 17.83957031 -3.30398437 17.86664063 -4.13671875 17.89453125 C-5.05904297 17.94673828 -5.05904297 17.94673828 -6 18 C-4.41039668 11.76559832 -2.72399099 5.83712355 0 0 Z " fill="#97DB7B" transform="translate(17,42)"/>
<path d="M0 0 C2.375 1.5625 2.375 1.5625 4 4 C4.29522269 9.11719328 2.68022098 11.71364359 -0.5625 15.4375 C-1.69468175 16.6380227 -2.83618996 17.83011262 -4 19 C-1.36 19.33 1.28 19.66 4 20 C4 21.32 4 22.64 4 24 C-0.62 24 -5.24 24 -10 24 C-10 17.69109889 -9.90489207 17.1681114 -6.0625 12.8125 C-2.92096923 9.26352561 -2.92096923 9.26352561 -1 5 C-4.11332248 5.66868314 -4.11332248 5.66868314 -5.1875 8.0625 C-5.455625 8.701875 -5.72375 9.34125 -6 10 C-6.99 9.67 -7.98 9.34 -9 9 C-9.25 6.1875 -9.25 6.1875 -9 3 C-6.31164707 0.01294119 -3.93697301 -0.68897028 0 0 Z " fill="#D9D9D9" transform="translate(35,11)"/>
<path d="M0 0 C1 3 1 3 -0.5625 6.375 C-3.70325327 11.47334606 -8.18892354 15.32662699 -13.82421875 17.48828125 C-20.63778322 19.09075333 -27.71393926 19.13366025 -34 15.875 C-37.79653449 13.4348701 -40.37134675 10.64619645 -43 7 C-39.44577514 7 -39.10684151 7.52791912 -36.625 9.875 C-31.45747885 14.75936931 -26.62552201 15.39841725 -19.71484375 15.25 C-13.19801445 14.6498891 -8.58453372 11.48265519 -4 7 C-2.47091238 4.72293763 -1.24995835 2.45184138 0 0 Z " fill="#CECFCD" transform="translate(54,28)"/>
<path d="M0 0 C5.75 1.875 5.75 1.875 8 3 C15.99014815 3.59610861 22.58043146 3.01812958 30 0 C29.7265625 1.89453125 29.7265625 1.89453125 29 4 C20.81976305 7.80804134 13.64560718 8.7633623 5 6 C1.9375 4.5625 1.9375 4.5625 0 3 C0 2.01 0 1.02 0 0 Z " fill="#87D268" transform="translate(17,42)"/>
<path d="M0 0 C0.7425 0.763125 1.485 1.52625 2.25 2.3125 C7.18985571 7.14008627 9.93519859 8.79902942 16.8125 9.25 C21.71465124 9.15888195 25.96904577 8.01556821 29.546875 4.46484375 C30.75836906 3.02534379 31.88737508 1.5172158 33 0 C33.495 0.99 33.495 0.99 34 2 C31.26471339 6.81410444 28.45549042 10.25307194 23 12 C16.02683391 13.02631193 10.33671834 12.66598203 4.55859375 8.4375 C2.46674918 6.50817969 1.12822157 4.60901239 0 2 C0 1.34 0 0.68 0 0 Z " fill="#8F8F8F" transform="translate(15,29)"/>
</svg>
